<?xml version="1.0" standalone="no"?>
<!DOCTYPE svg PUBLIC "-//W3C//DTD SVG 1.1//EN" "http://www.w3.org/Graphics/SVG/1.1/DTD/svg11.dtd" >
<svg>
<metadata>
Created by FontForge 20090622 at Wed Oct 18 05:58:13 2017
 By deploy user
copyright missing
</metadata>
<defs>
<font id="Provoke-Regular" horiz-adv-x="600" >
  <font-face 
    font-family="Provoke"
    font-weight="400"
    font-stretch="normal"
    units-per-em="1000"
    panose-1="0 0 5 0 0 0 0 0 0 0"
    ascent="800"
    descent="-200"
    x-height="996"
    cap-height="1000"
    bbox="-583 -200 851 1250"
    underline-thickness="50"
    underline-position="-50"
    unicode-range="U+0020-U+20AC"
  />
<missing-glyph horiz-adv-x="725" 
d="M595 1250v-1450h-460v1450h460zM483 1153h-239v-48h94v-54h-96v-47h241v47h-96v54h96v48zM387 966h-145v-151h241v49h-96v102zM338 917v-53h-48v53h48zM483 776h-241v-48h96v-54h-96v-47h145v101h96v48zM483 689h-48v-96h-193v-49h241v145zM483 512h-145v-81h49v33h48
v-68h-145v116h-48v-164h241v164zM483 261h-241v-164h241v164zM435 213v-68h-145v68h145zM483 64h-241v-48h102l-102 -68v-48h241v48h-148l101 68h47v48z" />
    <glyph glyph-name=".notdef" horiz-adv-x="725" 
d="M595 1250v-1450h-460v1450h460zM483 1153h-239v-48h94v-54h-96v-47h241v47h-96v54h96v48zM387 966h-145v-151h241v49h-96v102zM338 917v-53h-48v53h48zM483 776h-241v-48h96v-54h-96v-47h145v101h96v48zM483 689h-48v-96h-193v-49h241v145zM483 512h-145v-81h49v33h48
v-68h-145v116h-48v-164h241v164zM483 261h-241v-164h241v164zM435 213v-68h-145v68h145zM483 64h-241v-48h102l-102 -68v-48h241v48h-148l101 68h47v48z" />
    <glyph glyph-name=".null" horiz-adv-x="0" 
 />
    <glyph glyph-name="nonmarkingreturn" horiz-adv-x="333" 
 />
    <glyph glyph-name="space" unicode=" " horiz-adv-x="270" 
 />
    <glyph glyph-name="exclam" unicode="!" horiz-adv-x="307" 
d="M58 251v620q-2 44 14 79t45 49q86 41 158 -31v-5q-29 6 -38.5 -12.5t-8.5 -79.5v-620h-170zM144 -10q-34 0 -59.5 25t-25.5 60t25.5 60t59.5 25t59.5 -25t25.5 -60t-25.5 -60t-59.5 -25z" />
    <glyph glyph-name="quotedbl" unicode="&#x22;" horiz-adv-x="434" 
d="M50 813v187h139v-42q0 -49 -44 -97t-95 -48zM251 813v187h139v-42q0 -49 -44 -97t-95 -48z" />
    <glyph glyph-name="numbersign" unicode="#" horiz-adv-x="760" 
 />
    <glyph glyph-name="dollar" unicode="$" horiz-adv-x="496" 
d="M275 999q82 -7 134 -52.5t52 -111.5v-125h-170v125v28t0.5 27t0 24t-1.5 22t-3 18t-5 16.5t-7 12.5t-10.5 10t-14.5 6h-5q-8 -2 -14.5 -6t-10.5 -10t-7 -12.5t-5 -16.5t-3 -18t-1.5 -22t0 -24t0.5 -27v-28v-210v-28t-0.5 -27t0 -24t1.5 -22t3 -18t5 -16.5t7 -12.5
t10.5 -10t14.5 -6v-1q-92 0 -151.5 46.5t-59.5 118.5v210q0 66 52 111.5t134 52.5h-3v70h59v-70h-1zM250 500q92 0 151.5 -46.5t59.5 -118.5v-170q0 -72 -59.5 -118.5t-151.5 -46.5v1q8 2 14.5 6t10.5 10t7 12.5t5 16.5t3 18t1.5 22t0 24t-0.5 27v28v170v28t0.5 27t0 24
t-1.5 22t-3 18t-5 16.5t-7 12.5t-10.5 10t-14.5 6v1zM204 165v-28t-0.5 -27t0 -24t1.5 -22t3 -18t5 -16.5t7 -12.5t10.5 -10t14.5 -6v-1q-92 0 -151.5 46.5t-59.5 118.5v126h170v-126zM217 0h59v-70h-59v70z" />
    <glyph glyph-name="percent" unicode="%" horiz-adv-x="760" 
 />
    <glyph glyph-name="ampersand" unicode="&#x26;" horiz-adv-x="555" 
d="M45 835q0 72 59.5 118.5t151.5 46.5v-1q-8 -2 -14.5 -6t-10.5 -10t-7 -12.5t-5 -16.5t-3 -18t-1.5 -22t0 -24t0.5 -27v-28v-192v-28t-0.5 -27t0 -24t1.5 -22t3 -18t5 -16.5t7 -12.5t10.5 -10t14.5 -6v-1q-92 0 -151.5 46.5t-59.5 118.5v192zM315 835v28t0.5 27t0 24
t-1.5 22t-3 18t-5 16.5t-7 12.5t-10.5 10t-14.5 6v1q92 0 151.5 -46.5t59.5 -118.5v-54h-170v54zM45 301q0 72 59.5 118.5t151.5 46.5v-1q-8 -2 -14.5 -6t-10.5 -10t-7 -12.5t-5 -16.5t-3 -18t-1.5 -22t0 -24t0.5 -27v-28v-136v-28t-0.5 -27t0 -24t1.5 -22t3 -18t5 -16.5
t7 -12.5t10.5 -10t14.5 -6v-1q-92 0 -151.5 46.5t-59.5 118.5v136zM520 406v-100h-35v-141q0 -72 -59.5 -118.5t-151.5 -46.5v1q8 2 14.5 6t10.5 10t7 12.5t5 16.5t3 18t1.5 22t0 24t-0.5 27v28v141h-33v100h238z" />
    <glyph glyph-name="quotesingle" unicode="'" horiz-adv-x="233" 
d="M50 813v187h139v-42q0 -49 -44 -97t-95 -48z" />
    <glyph glyph-name="parenleft" unicode="(" horiz-adv-x="346" 
d="M311 -10q-120 55 -187 186t-67 310q0 172 71.5 320.5t182.5 203.5v-9q-46 -59 -82 -205.5t-37 -309.5q-2 -402 119 -483v-13z" />
    <glyph glyph-name="parenright" unicode=")" horiz-adv-x="346" 
d="M35 -10v13q121 81 119 483q-1 163 -37 309.5t-82 205.5v9q111 -55 182.5 -203.5t71.5 -320.5q0 -179 -67 -310t-187 -186z" />
    <glyph glyph-name="asterisk" unicode="*" horiz-adv-x="760" 
 />
    <glyph glyph-name="comma" unicode="," horiz-adv-x="286" 
d="M38 -7v1q19 8 29 38.5t10 55.5v92h147q0 -80 -52 -132t-134 -55z" />
    <glyph glyph-name="hyphen" unicode="-" horiz-adv-x="297" 
d="M50 422v110h197v-110h-197z" />
    <glyph glyph-name="period" unicode="." horiz-adv-x="270" 
d="M135 -5q-35 0 -60 25.5t-25 59.5t25 59.5t60 25.5t60 -25.5t25 -59.5t-25 -59.5t-60 -25.5z" />
    <glyph glyph-name="slash" unicode="/" horiz-adv-x="566" 
d="M27 0q12 0 19 6t10 13t9 26l251 820q2 4 7.5 17.5t8.5 19.5t9 17t15 20.5t21 20.5q45 40 162 40q-18 -10 -28 -19t-13 -24l-238 -815q-32 -71 -84.5 -106.5t-148.5 -35.5z" />
    <glyph glyph-name="zero" unicode="0" horiz-adv-x="512" 
d="M210 835v-670v-28t-0.5 -27t0 -24t1.5 -22t3 -18t5 -16.5t7 -12.5t10.5 -10t14.5 -6v-1q-92 0 -151.5 46.5t-59.5 118.5v670q0 72 59.5 118.5t151.5 46.5v-1q-8 -2 -14.5 -6t-10.5 -10t-7 -12.5t-5 -16.5t-3 -18t-1.5 -22t0 -24t0.5 -27v-28zM472 835v-670
q0 -72 -59.5 -118.5t-151.5 -46.5v1q8 2 14.5 6t10.5 10t7 12.5t5 16.5t3 18t1.5 22t0 24t-0.5 27v28v670v28t0.5 27t0 24t-1.5 22t-3 18t-5 16.5t-7 12.5t-10.5 10t-14.5 6v1q92 0 151.5 -46.5t59.5 -118.5z" />
    <glyph glyph-name="one" unicode="1" horiz-adv-x="313" 
d="M92 0v841q0 41 -14 60.5t-58 19.5q24 78 118 78q73 0 104 -44.5t31 -130.5v-824h-181z" />
    <glyph glyph-name="two" unicode="2" horiz-adv-x="515" 
d="M208 835v-125h-170v125q0 72 59.5 118.5t151.5 46.5v-1q-8 -2 -14.5 -6t-10.5 -10t-7 -12.5t-5 -16.5t-3 -18t-1.5 -22t0 -24t0.5 -27v-28zM472 598q0 -72 -59.5 -118.5t-151.5 -46.5v1q8 2 14.5 6t10.5 10t7 12.5t5 16.5t3 18t1.5 22t0 24t-0.5 27v28v237v28t0.5 27
t0 24t-1.5 22t-3 18t-5 16.5t-7 12.5t-10.5 10t-14.5 6v1q92 0 151.5 -46.5t59.5 -118.5v-237zM215 120h264v-120h-434v297q0 72 59.5 118.5t151.5 46.5v-1q-8 -2 -14.5 -6t-10.5 -10t-7 -12.5t-5 -16.5t-3 -18t-1.5 -22t0 -24t0.5 -27v-28v-177z" />
    <glyph glyph-name="three" unicode="3" horiz-adv-x="520" 
d="M39 610v225q0 72 59.5 118.5t151.5 46.5v-1q-8 -2 -14.5 -6t-10.5 -10t-7 -12.5t-5 -16.5t-3 -18t-1.5 -22t0 -24t0.5 -27v-28v-225h-170zM473 835v-164q0 -72 -59.5 -118.5t-151.5 -46.5v1q8 2 14.5 6t10.5 10t7 12.5t5 16.5t3 18t1.5 22t0 24t-0.5 27v28v164v28t0.5 27
t0 24t-1.5 22t-3 18t-5 16.5t-7 12.5t-10.5 10t-14.5 6v1q92 0 151.5 -46.5t59.5 -118.5zM473 328v-163q0 -72 -59.5 -118.5t-151.5 -46.5v1q8 2 14.5 6t10.5 10t7 12.5t5 16.5t3 18t1.5 22t0 24t-0.5 27v28v163v28t0.5 27t0 24t-1.5 22t-3 18t-5 16.5t-7 12.5t-10.5 10
t-14.5 6v1q92 0 151.5 -46.5t59.5 -118.5zM209 360v-195v-28t-0.5 -27t0 -24t1.5 -22t3 -18t5 -16.5t7 -12.5t10.5 -10t14.5 -6v-1q-92 0 -151.5 46.5t-59.5 118.5v195h170z" />
    <glyph glyph-name="four" unicode="4" horiz-adv-x="544" 
d="M504 299v-120h-42v-179h-171v179h-248v656q0 72 59.5 118.5t151.5 46.5v-1q-8 -2 -14.5 -6t-10.5 -10t-7 -12.5t-5 -16.5t-3 -18t-1.5 -22t0 -24t0.5 -27v-28v-536h78v611h171v-611h42z" />
    <glyph glyph-name="five" unicode="5" horiz-adv-x="525" 
d="M212 960h265v-120h-265v-247q-1 -60 8.5 -76t38.5 -10v-5q-72 -72 -158 -31q-28 13 -44.5 51.5t-14.5 83.5v394h170v-40zM414 560q28 -13 44.5 -51.5t14.5 -83.5l1 -260q0 -72 -59.5 -118.5t-151.5 -46.5v1q8 2 14.5 6t10.5 10t7 12.5t5 16.5t3 18t1.5 22t0 24t-0.5 27
v28l-1 273q1 60 -8.5 76t-38.5 10v5q72 72 158 31zM216 165v-28t-0.5 -27t0 -24t1.5 -22t3 -18t5 -16.5t7 -12.5t10.5 -10t14.5 -6v-1q-92 0 -151.5 46.5t-59.5 118.5v198h168z" />
    <glyph glyph-name="six" unicode="6" horiz-adv-x="521" 
d="M216 835v-670v-28t-0.5 -27t0 -24t1.5 -22t3 -18t5 -16.5t7 -12.5t10.5 -10t14.5 -6v-1q-92 0 -151.5 46.5t-59.5 118.5v670q0 72 59.5 118.5t151.5 46.5v-1q-8 -2 -14.5 -6t-10.5 -10t-7 -12.5t-5 -16.5t-3 -18t-1.5 -22t0 -24t0.5 -27v-28zM303 650v185v28t0.5 27t0 24
t-1.5 22t-3 18t-5 16.5t-7 12.5t-10.5 10t-14.5 6v1q92 0 151.5 -46.5t59.5 -118.5v-185h-170zM473 424v-259q0 -72 -59.5 -118.5t-151.5 -46.5v1q8 2 14.5 6t10.5 10t7 12.5t5 16.5t3 18t1.5 22t0 24t-0.5 27v28v272q1 60 -8.5 76t-38.5 10v5q72 72 158 31
q28 -13 44.5 -51.5t14.5 -83.5z" />
    <glyph glyph-name="seven" unicode="7" horiz-adv-x="511" 
d="M39 0l258 868q2 4 7.5 17.5t8.5 19.5t9 17t15 20.5t21 20.5q27 25 55.5 33.5t77.5 3.5l-281 -1000h-171zM35 875v125h332q-34 -16 -60.5 -52.5t-35.5 -72.5h-236z" />
    <glyph glyph-name="eight" unicode="8" horiz-adv-x="508" 
d="M211 835v-155v-28t-0.5 -27t0 -24t1.5 -22t3 -18t5 -16.5t7 -12.5t10.5 -10t14.5 -6v-1q-92 0 -151.5 46.5t-59.5 118.5v155q0 72 59.5 118.5t151.5 46.5v-1q-8 -2 -14.5 -6t-10.5 -10t-7 -12.5t-5 -16.5t-3 -18t-1.5 -22t0 -24t0.5 -27v-28zM467 835v-155
q0 -72 -59.5 -118.5t-151.5 -46.5v1q8 2 14.5 6t10.5 10t7 12.5t5 16.5t3 18t1.5 22t0 24t-0.5 27v28v155v28t0.5 27t0 24t-1.5 22t-3 18t-5 16.5t-7 12.5t-10.5 10t-14.5 6v1q92 0 151.5 -46.5t59.5 -118.5zM210 337v-172v-28t-0.5 -27t0 -24t1.5 -22t3 -18t5 -16.5
t7 -12.5t10.5 -10t14.5 -6v-1q-92 0 -151.5 46.5t-59.5 118.5v172q0 72 59.5 118.5t151.5 46.5v-1q-8 -2 -14.5 -6t-10.5 -10t-7 -12.5t-5 -16.5t-3 -18t-1.5 -22t0 -24t0.5 -27v-28zM468 337v-172q0 -72 -59.5 -118.5t-151.5 -46.5v1q8 2 14.5 6t10.5 10t7 12.5t5 16.5
t3 18t1.5 22t0 24t-0.5 27v28v172v28t0.5 27t0 24t-1.5 22t-3 18t-5 16.5t-7 12.5t-10.5 10t-14.5 6v1q92 0 151.5 -46.5t59.5 -118.5z" />
    <glyph glyph-name="nine" unicode="9" horiz-adv-x="514" 
d="M211 835v-272q-1 -60 8.5 -76t38.5 -10v-5q-72 -72 -158 -31q-28 13 -44.5 51.5t-14.5 83.5v259q0 72 59.5 118.5t151.5 46.5v-1q-8 -2 -14.5 -6t-10.5 -10t-7 -12.5t-5 -16.5t-3 -18t-1.5 -22t0 -24t0.5 -27v-28zM468 835v-670q0 -72 -59.5 -118.5t-151.5 -46.5v1
q8 2 14.5 6t10.5 10t7 12.5t5 16.5t3 18t1.5 22t0 24t-0.5 27v28v670v28t0.5 27t0 24t-1.5 22t-3 18t-5 16.5t-7 12.5t-10.5 10t-14.5 6v1q92 0 151.5 -46.5t59.5 -118.5zM211 350v-185v-28t-0.5 -27t0 -24t1.5 -22t3 -18t5 -16.5t7 -12.5t10.5 -10t14.5 -6v-1
q-92 0 -151.5 46.5t-59.5 118.5v185h170z" />
    <glyph glyph-name="colon" unicode=":" horiz-adv-x="270" 
d="M135 389q-35 0 -60 25.5t-25 59.5t25 59.5t60 25.5t60 -25.5t25 -59.5t-25 -59.5t-60 -25.5zM135 -3q-35 0 -60 25.5t-25 59.5t25 59.5t60 25.5t60 -25.5t25 -59.5t-25 -59.5t-60 -25.5z" />
    <glyph glyph-name="semicolon" unicode=";" horiz-adv-x="290" 
d="M152 381q-34 0 -59.5 25.5t-25.5 59.5t25.5 59.5t59.5 25.5t59.5 -25.5t25.5 -59.5t-25.5 -59.5t-59.5 -25.5zM45 -18v1q19 8 29 38.5t10 55.5v92h147q0 -80 -52 -132t-134 -55z" />
    <glyph glyph-name="question" unicode="?" horiz-adv-x="525" 
d="M45 710v125q0 72 59.5 118.5t151.5 46.5v-1q-8 -2 -14.5 -6t-10.5 -10t-7 -12.5t-5 -16.5t-3 -18t-1.5 -22t0 -24t0.5 -27v-28v-125h-170zM485 835v-192q0 -72 -59.5 -118.5t-151.5 -46.5v1q8 2 14.5 6t10.5 10t7 12.5t5 16.5t3 18t1.5 22t0 24t-0.5 27v28v192v28t0.5 27
t0 24t-1.5 22t-3 18t-5 16.5t-7 12.5t-10.5 10t-14.5 6v1q92 0 151.5 -46.5t59.5 -118.5zM172 229v79q0 72 59.5 118.5t151.5 46.5v-1q-8 -2 -14.5 -6t-10.5 -10t-7 -12.5t-5 -16.5t-3 -18t-1.5 -22t0 -24t0.5 -27v-28v-79h-170zM258 -7q-34 0 -59.5 25.5t-25.5 59.5
t25.5 59.5t59.5 25.5t59.5 -25.5t25.5 -59.5t-25.5 -59.5t-59.5 -25.5z" />
    <glyph glyph-name="at" unicode="@" horiz-adv-x="760" 
 />
    <glyph glyph-name="A" unicode="A" horiz-adv-x="524" 
d="M271 1012q92 0 151.5 -46.5t59.5 -118.5v-847h-170v388h-100v-388h-170v847q0 72 59.5 118.5t151.5 46.5v-1q-8 -2 -14.5 -6t-10.5 -10t-7 -12.5t-5 -16.5t-3 -18t-1.5 -22t0 -24t0.5 -27v-28v-349h100v349v28t0.5 27t0 24t-1.5 22t-3 18t-5 16.5t-7 12.5t-10.5 10
t-14.5 6v1z" />
    <glyph glyph-name="B" unicode="B" horiz-adv-x="507" 
d="M470 856v-213q0 -72 -59.5 -118.5t-151.5 -46.5v1q8 2 14.5 6t10.5 10t7 12.5t5 16.5t3 18t1.5 22t0 24t-0.5 27v28v226q1 60 -8.5 76t-38.5 10v5q72 72 158 31q28 -13 44.5 -51.5t14.5 -83.5zM50 0v1000h170v-1000h-170zM470 301v-136q0 -72 -59.5 -118.5t-151.5 -46.5
v1q8 2 14.5 6t10.5 10t7 12.5t5 16.5t3 18t1.5 22t0 24t-0.5 27v28v136v28t0.5 27t0 24t-1.5 22t-3 18t-5 16.5t-7 12.5t-10.5 10t-14.5 6v1q92 0 151.5 -46.5t59.5 -118.5z" />
    <glyph glyph-name="C" unicode="C" horiz-adv-x="522" 
d="M216 840v-680v-28t-0.5 -27t0 -24t1.5 -22t3 -18t5 -16.5t7 -12.5t10.5 -10t14.5 -6v-1q-92 0 -151.5 46.5t-59.5 118.5v680q0 72 59.5 118.5t151.5 46.5v-1q-8 -2 -14.5 -6t-10.5 -10t-7 -12.5t-5 -16.5t-3 -18t-1.5 -22t0 -24t0.5 -27v-28zM316 720v120v28t0.5 27t0 24
t-1.5 22t-3 18t-5 16.5t-7 12.5t-10.5 10t-14.5 6v1q92 0 151.5 -46.5t59.5 -118.5v-120h-170zM486 280v-120q0 -72 -59.5 -118.5t-151.5 -46.5v1q8 2 14.5 6t10.5 10t7 12.5t5 16.5t3 18t1.5 22t0 24t-0.5 27v28v120h170z" />
    <glyph glyph-name="D" unicode="D" horiz-adv-x="510" 
d="M50 -4v1006h170v-1006h-170zM464 836v-675q0 -72 -59.5 -118.5t-151.5 -46.5v1q8 2 14.5 6t10.5 10t7 12.5t5 16.5t3 18t1.5 22t0 24t-0.5 27v28v675v28t0.5 27t0 24t-1.5 22t-3 18t-5 16.5t-7 12.5t-10.5 10t-14.5 6v1q92 0 151.5 -46.5t59.5 -118.5z" />
    <glyph glyph-name="E" unicode="E" horiz-adv-x="489" 
d="M134 1000h306v-135h-178q-11 45 -47.5 84t-80.5 51zM242 417v-287h197v-130h-367v830v28t0.5 27t0 24t-1.5 22t-3 18t-5 16.5t-7 12.5t-10.5 10t-14.5 6v1q92 0 151.5 -46.5t59.5 -118.5v-303h187v-110h-187z" />
    <glyph glyph-name="F" unicode="F" horiz-adv-x="485" 
d="M134 1000h306v-135h-178q-8 43 -46 83t-82 52zM242 830v-303h187v-110h-187v-417h-170v830v28t0.5 27t0 24t-1.5 22t-3 18t-5 16.5t-7 12.5t-10.5 10t-14.5 6v1q92 0 151.5 -46.5t59.5 -118.5z" />
    <glyph glyph-name="G" unicode="G" horiz-adv-x="528" 
d="M46 839q0 72 59.5 118.5t151.5 46.5v-1q-8 -2 -14.5 -6t-10.5 -10t-7 -12.5t-5 -16.5t-3 -18t-1.5 -22t0 -24t0.5 -27v-28v-682v-28t-0.5 -27t0 -24t1.5 -22t3 -18t5 -16.5t7 -12.5t10.5 -10t14.5 -6v-1q-92 0 -151.5 46.5t-59.5 118.5v682zM275 1004q92 0 151.5 -46.5
t59.5 -118.5v-119h-170v119v28t0.5 27t0 24t-1.5 22t-3 18t-5 16.5t-7 12.5t-10.5 10t-14.5 6v1zM275 381v110h211v-334q0 -72 -59.5 -118.5t-151.5 -46.5v1q8 2 14.5 6t10.5 10t7 12.5t5 16.5t3 18t1.5 22t0 24t-0.5 27v28v224h-41z" />
    <glyph glyph-name="H" unicode="H" horiz-adv-x="540" 
d="M320 1000h170v-1000h-170v418h-100v-418h-170v1000h170v-472h100v472z" />
    <glyph glyph-name="I" unicode="I" horiz-adv-x="270" 
d="M50 0v1000h170v-1000h-170z" />
    <glyph glyph-name="J" unicode="J" horiz-adv-x="398" 
d="M364 869h-78v-735q2 -44 -14 -79t-45 -49q-86 -41 -158 31v5q29 -6 38.5 12.5t8.5 79.5v735h-81l1 130h80v1h170v-1h79z" />
    <glyph glyph-name="K" unicode="K" horiz-adv-x="504" 
d="M50 0v1000h170v-1000h-170zM462 1000v-370q0 -72 -59.5 -118.5t-151.5 -46.5v1q8 2 14.5 6t10.5 10t7 12.5t5 16.5t3 18t1.5 22t0 24t-0.5 27v28v370h170zM291 0l1 286v28t0.5 27t0 24t-1.5 22t-3 18t-5 16.5t-7 12.5t-10.5 10t-14.5 6v1q92 0 151.5 -46.5t59.5 -118.5
v-286h-171z" />
    <glyph glyph-name="L" unicode="L" horiz-adv-x="482" 
d="M242 1000v-835q0 -72 -59.5 -118.5t-151.5 -46.5v1q8 2 14.5 6t10.5 10t7 12.5t5 16.5t3 18t1.5 22t0 24t-0.5 27v28v835h170zM142 -3q95 25 125 130h185v-130h-310z" />
    <glyph glyph-name="M" unicode="M" horiz-adv-x="793" 
d="M42 0v841q0 72 59.5 118.5t151.5 46.5v-1q-8 -2 -14.5 -6t-10.5 -10t-7 -12.5t-5 -16.5t-3 -18t-1.5 -22t0 -24t0.5 -27v-28v-841h-170zM317 0v841v14q0 32 -0.5 46.5t-2.5 36.5t-6.5 33t-13.5 20.5t-23 13.5v1q74 0 126 -40q52 40 126 40v-1q-14 -4 -23 -13.5t-13.5 -20
t-6.5 -33t-2.5 -37t-0.5 -46.5v-14v-841h-160zM582 0l-1 841v28t0.5 27t0 24t-1.5 22t-3 18t-5 16.5t-7 12.5t-10.5 10t-14.5 6v1q92 0 151.5 -46.5t59.5 -118.5v-841h-169z" />
    <glyph glyph-name="N" unicode="N" horiz-adv-x="527" 
d="M312 0v866q1 60 -8.5 76t-38.5 10v5q72 72 158 31q28 -13 44.5 -51.5t14.5 -83.5v-853h-170zM42 0v830q0 72 59.5 118.5t151.5 46.5v-1q-8 -2 -14.5 -6t-10.5 -10t-7 -12.5t-5 -16.5t-3 -18t-1.5 -22t0 -24t0.5 -27v-28v-830h-170z" />
    <glyph glyph-name="O" unicode="O" horiz-adv-x="532" 
d="M216 843v-685v-28t-0.5 -27t0 -24t1.5 -22t3 -18t5 -16.5t7 -12.5t10.5 -10t14.5 -6v-1q-92 0 -151.5 46.5t-59.5 118.5v685q0 72 59.5 118.5t151.5 46.5v-1q-8 -2 -14.5 -6t-10.5 -10t-7 -12.5t-5 -16.5t-3 -18t-1.5 -22t0 -24t0.5 -27v-28zM486 843v-685
q0 -72 -59.5 -118.5t-151.5 -46.5v1q8 2 14.5 6t10.5 10t7 12.5t5 16.5t3 18t1.5 22t0 24t-0.5 27v28v685v28t0.5 27t0 24t-1.5 22t-3 18t-5 16.5t-7 12.5t-10.5 10t-14.5 6v1q92 0 151.5 -46.5t59.5 -118.5z" />
    <glyph glyph-name="P" unicode="P" horiz-adv-x="515" 
d="M477 863v-547q2 -44 -14 -79t-45 -49q-86 -41 -158 31v5q29 -6 38.5 12.5t8.5 79.5v560q1 60 -8.5 76t-38.5 10v5q72 72 158 31q28 -13 44.5 -51.5t14.5 -83.5zM50 0v1000h170v-1000h-170z" />
    <glyph glyph-name="Q" unicode="Q" horiz-adv-x="581" 
d="M46 840q0 72 59.5 118.5t151.5 46.5v-1q-8 -2 -14.5 -6t-10.5 -10t-7 -12.5t-5 -16.5t-3 -18t-1.5 -22t0 -24t0.5 -27v-28v-678v-28t-0.5 -27t0 -24t1.5 -22t3 -18t5 -16.5t7 -12.5t10.5 -10t14.5 -6v-1q-92 0 -151.5 46.5t-59.5 118.5v678zM554 94v-94h-251
q-12 -3 -28 -3v1q23 6 31.5 27.5t9.5 60.5v8v68v678v28t0.5 27t0 24t-1.5 22t-3 18t-5 16.5t-7 12.5t-10.5 10t-14.5 6v1q92 0 151.5 -46.5t59.5 -118.5v-669q0 -46 -33 -77h101z" />
    <glyph glyph-name="R" unicode="R" horiz-adv-x="503" 
d="M462 859v-234q0 -72 -59.5 -118.5t-151.5 -46.5v1q8 2 14.5 6t10.5 10t7 12.5t5 16.5t3 18t1.5 22t0 24t-0.5 27v28v247q1 60 -8.5 76t-38.5 10v5q72 72 158 31q28 -13 44.5 -51.5t14.5 -83.5zM50 0v1000h170v-1000h-170zM292 0l-1 283v28t0.5 27t0 24t-1.5 22t-3 18
t-5 16.5t-7 12.5t-10.5 10t-14.5 6v1q92 0 151.5 -46.5t59.5 -118.5l1 -283h-170z" />
    <glyph glyph-name="S" unicode="S" horiz-adv-x="496" 
d="M204 835v-210v-28t-0.5 -27t0 -24t1.5 -22t3 -18t5 -16.5t7 -12.5t10.5 -10t14.5 -6v-1q-92 0 -151.5 46.5t-59.5 118.5v210q0 72 59.5 118.5t151.5 46.5v-1q-8 -2 -14.5 -6t-10.5 -10t-7 -12.5t-5 -16.5t-3 -18t-1.5 -22t0 -24t0.5 -27v-28zM291 710v125v28t0.5 27t0 24
t-1.5 22t-3 18t-5 16.5t-7 12.5t-10.5 10t-14.5 6v1q92 0 151.5 -46.5t59.5 -118.5v-125h-170zM461 335v-170q0 -72 -59.5 -118.5t-151.5 -46.5v1q8 2 14.5 6t10.5 10t7 12.5t5 16.5t3 18t1.5 22t0 24t-0.5 27v28v170v28t0.5 27t0 24t-1.5 22t-3 18t-5 16.5t-7 12.5
t-10.5 10t-14.5 6v1q92 0 151.5 -46.5t59.5 -118.5zM204 291v-126v-28t-0.5 -27t0 -24t1.5 -22t3 -18t5 -16.5t7 -12.5t10.5 -10t14.5 -6v-1q-92 0 -151.5 46.5t-59.5 118.5v126h170z" />
    <glyph glyph-name="T" unicode="T" horiz-adv-x="486" 
d="M208 1000h248v-125h-123q-8 42 -44 77.5t-81 47.5zM114 995q89 -3 145.5 -49t56.5 -116v-830h-170v830v41h-116v124h81h3z" />
    <glyph glyph-name="U" unicode="U" horiz-adv-x="520" 
d="M214 1000l1 -872q-1 -60 8.5 -76t38.5 -10v-5q-72 -72 -158 -31q-28 13 -44.5 51.5t-14.5 83.5v859h169zM478 1000l-1 -840q0 -72 -59.5 -118.5t-151.5 -46.5v1q8 2 14.5 6t10.5 10t7 12.5t5 16.5t3 18t1.5 22t0 24t-0.5 27v28v840h171z" />
    <glyph glyph-name="V" unicode="V" horiz-adv-x="517" 
d="M211 1000l1 -842v-28t-0.5 -27t0 -24t1.5 -22t3 -18t5 -16.5t7 -12.5t10.5 -10t14.5 -6v-1q-92 0 -151.5 46.5t-59.5 118.5v842h169zM475 1000l-1 -842q0 -72 -59.5 -118.5t-151.5 -46.5v1q8 2 14.5 6t10.5 10t7 12.5t5 16.5t3 18t1.5 22t0 24t-0.5 27v28v842h171z" />
    <glyph glyph-name="W" unicode="W" horiz-adv-x="794" 
d="M212 1000v-841v-28t-0.5 -27t0 -24t1.5 -22t3 -18t5 -16.5t7 -12.5t10.5 -10t14.5 -6v-1q-92 0 -151.5 46.5t-59.5 118.5v841h170zM276 -6v1q10 3 17 8t11.5 15.5t7 18.5t3 25.5t1 27.5t0 33.5t-0.5 35.5v841h164v-841q0 -12 -0.5 -35.5t0 -33.5t1 -27.5t3 -25.5t7 -18.5
t11.5 -15.5t17 -8v-1q-70 0 -121 40q-51 -40 -121 -40zM751 1000l1 -841q0 -72 -59.5 -118.5t-151.5 -46.5v1q8 2 14.5 6t10.5 10t7 12.5t5 16.5t3 18t1.5 22t0 24t-0.5 27v28v841h169z" />
    <glyph glyph-name="X" unicode="X" horiz-adv-x="513" 
d="M211 1000v-382v-28t-0.5 -27t0 -24t1.5 -22t3 -18t5 -16.5t7 -12.5t10.5 -10t14.5 -6v-1q-92 0 -151.5 46.5t-59.5 118.5v382h170zM471 1000v-382q0 -72 -59.5 -118.5t-151.5 -46.5v1q8 2 14.5 6t10.5 10t7 12.5t5 16.5t3 18t1.5 22t0 24t-0.5 27v28v382h170zM41 0v274
q0 72 59.5 118.5t151.5 46.5v-1q-8 -2 -14.5 -6t-10.5 -10t-7 -12.5t-5 -16.5t-3 -18t-1.5 -22t0 -24t0.5 -27v-28v-274h-170zM302 0v274v28t0.5 27t0 24t-1.5 22t-3 18t-5 16.5t-7 12.5t-10.5 10t-14.5 6v1q92 0 151.5 -46.5t59.5 -118.5v-274h-170z" />
    <glyph glyph-name="Y" unicode="Y" horiz-adv-x="522" 
d="M106 212q-28 13 -44.5 51.5t-14.5 83.5v653h170v-666q-1 -60 8.5 -76t38.5 -10v-5q-72 -72 -158 -31zM302 1000h170v-835q0 -72 -59.5 -118.5t-151.5 -46.5v1q8 2 14.5 6t10.5 10t7 12.5t5 16.5t3 18t1.5 22t0 24t-0.5 27v28v835zM43 160v5v-5zM213 165v-5v5zM213 160
v-27v-26v-23t1 -21.5t3 -17.5t5 -16t7.5 -12.5t10.5 -10t14 -5.5v-1q-90 0 -149.5 45t-61.5 115h170z" />
    <glyph glyph-name="Z" unicode="Z" horiz-adv-x="554" 
d="M21 0q12 0 19 6t10 13t9 26l251 820q2 4 7.5 17.5t8.5 19.5t9 17t15 20.5t21 20.5q45 40 162 40q-18 -10 -28 -19t-13 -24l-238 -815q-32 -71 -84.5 -106.5t-148.5 -35.5zM45 875v125h340q-36 -16 -68.5 -54t-40.5 -71h-231zM161 2q46 16 77.5 49t45.5 76h217v-125h-340z
" />
    <glyph glyph-name="bracketleft" unicode="[" horiz-adv-x="259" 
d="M230 -4q-76 0 -130 51.5t-54 116.5l3 676q0 72 51 118.5t130 46.5v-1q-8 -2 -14 -9t-9.5 -16t-6 -21t-3.5 -22.5t-2 -23.5t-0.5 -21t0.5 -16.5v-9.5v-704v-28v-27v-23.5t1 -22t2.5 -18.5t4 -16.5t6 -12.5t9 -10t12.5 -6v-1z" />
    <glyph glyph-name="backslash" unicode="\" horiz-adv-x="564" 
d="M538 0q-96 0 -148.5 35.5t-84.5 106.5l-238 815q-3 15 -13 24t-28 19q117 0 162 -40q12 -11 21 -20.5t15 -20.5t9 -17t8.5 -19.5t7.5 -17.5l251 -820q6 -19 9 -26t10 -13t19 -6z" />
    <glyph glyph-name="bracketright" unicode="]" horiz-adv-x="259" 
d="M29 -4v1q7 2 12.5 6t9 10t6 12.5t4 16.5t2.5 18.5t1 22v23.5v27v28v704v9.5t0.5 16.5t-0.5 21t-2 23.5t-3.5 22.5t-6 21t-9.5 16t-14 9v1q79 0 130 -46.5t51 -118.5l3 -676q0 -65 -54 -116.5t-130 -51.5z" />
    <glyph glyph-name="asciicircum" unicode="^" horiz-adv-x="760" 
 />
    <glyph glyph-name="underscore" unicode="_" horiz-adv-x="371" 
d="M50 0v120h271v-120h-271z" />
    <glyph glyph-name="grave" unicode="`" 
 />
    <glyph glyph-name="a" unicode="a" horiz-adv-x="515" 
d="M212 864v-735q-1 -60 8.5 -76t38.5 -10v-5q-72 -72 -158 -31q-28 13 -44.5 51.5t-14.5 83.5v722q-2 44 14 79t45 49q86 41 158 -31v-5q-29 6 -38.5 -12.5t-8.5 -79.5zM295 0v1000h170v-1000h-170z" />
    <glyph glyph-name="b" unicode="b" horiz-adv-x="521" 
d="M50 0v1100h170v-1100h-170zM479 857v-727q2 -44 -14 -79t-45 -49q-86 -41 -158 31v5q29 -6 38.5 12.5t8.5 79.5v740q1 60 -8.5 76t-38.5 10v5q72 72 158 31q28 -13 44.5 -51.5t14.5 -83.5z" />
    <glyph glyph-name="c" unicode="c" horiz-adv-x="523" 
d="M216 840v-679v-28t-0.5 -27t0 -24t1.5 -22t3 -18t5 -16.5t7 -12.5t10.5 -10t14.5 -6v-1q-92 0 -151.5 46.5t-59.5 118.5v679q0 72 59.5 118.5t151.5 46.5v-1q-8 -2 -14.5 -6t-10.5 -10t-7 -12.5t-5 -16.5t-3 -18t-1.5 -22t0 -24t0.5 -27v-28zM316 720v120v28t0.5 27t0 24
t-1.5 22t-3 18t-5 16.5t-7 12.5t-10.5 10t-14.5 6v1q92 0 151.5 -46.5t59.5 -118.5v-120h-170zM486 280v-119q0 -72 -59.5 -118.5t-151.5 -46.5v1q8 2 14.5 6t10.5 10t7 12.5t5 16.5t3 18t1.5 22t0 24t-0.5 27v28v119h170z" />
    <glyph glyph-name="d" unicode="d" horiz-adv-x="511" 
d="M291 0v1100h170v-1100h-170zM212 864v-741q-1 -60 8.5 -76t38.5 -10v-5q-72 -72 -158 -31q-28 13 -44.5 51.5t-14.5 83.5v728q-2 44 14 79t45 49q86 41 158 -31v-5q-29 6 -38.5 -12.5t-8.5 -79.5z" />
    <glyph glyph-name="e" unicode="e" horiz-adv-x="513" 
d="M212 840v-678v-28t-0.5 -27t0 -24t1.5 -22t3 -18t5 -16.5t7 -12.5t10.5 -10t14.5 -6v-1q-92 0 -151.5 46.5t-59.5 118.5v678q0 72 59.5 118.5t151.5 46.5v-1q-8 -2 -14.5 -6t-10.5 -10t-7 -12.5t-5 -16.5t-3 -18t-1.5 -22t0 -24t0.5 -27v-28zM474 840v-375q2 -44 -14 -79
t-45 -49q-86 -41 -158 31v5q29 -6 38.5 12.5t8.5 79.5v375v28t0.5 27t0 24t-1.5 22t-3 18t-5 16.5t-7 12.5t-10.5 10t-14.5 6v1q92 0 151.5 -46.5t59.5 -118.5zM474 250v-88q0 -72 -59.5 -118.5t-151.5 -46.5v1q8 2 14.5 6t10.5 10t7 12.5t5 16.5t3 18t1.5 22t0 24t-0.5 27
v28v88h170z" />
    <glyph glyph-name="f" unicode="f" horiz-adv-x="383" 
d="M353 999v-120h-72v-880h-175v880h-76v120h76v84q-2 44 15 79t46 49q29 13 57 14t49 -8.5t33.5 -18t22.5 -18.5v-5q-29 6 -39 -8.5t-9 -57.5v-110h72z" />
    <glyph glyph-name="g" unicode="g" horiz-adv-x="532" 
d="M212 867v-737q-1 -60 8.5 -76t38.5 -10v-5q-72 -72 -158 -31q-28 13 -44.5 51.5t-14.5 83.5v724q-2 44 14 79t45 49q86 41 158 -31v-5q-29 6 -38.5 -12.5t-8.5 -79.5zM482 1000v-969q2 -44 -14 -79t-45 -49q-86 -41 -158 31v5q29 -6 38.5 12.5t8.5 79.5v969h170z" />
    <glyph glyph-name="h" unicode="h" horiz-adv-x="518" 
d="M50 -3v1103h170v-1103h-170zM302 -1v870q1 60 -8.5 76t-38.5 10v5q72 72 158 31q28 -13 44.5 -51.5t14.5 -83.5v-857h-170z" />
    <glyph glyph-name="i" unicode="i" horiz-adv-x="295" 
d="M132 1069q-36 0 -60.5 24.5t-24.5 59.5q0 36 24.5 61t60.5 25q35 0 60 -25.5t25 -60.5t-25 -59.5t-60 -24.5zM106 1q-28 13 -45 47.5t-15 61.5v890h173v-877q-1 -60 9 -76t40 -10v-5q-75 -71 -162 -31z" />
    <glyph glyph-name="j" unicode="j" horiz-adv-x="285" 
d="M151 1068q-36 0 -60.5 24.5t-24.5 59.5q0 36 24.5 61t60.5 25q35 0 60 -25.5t25 -60.5t-25 -59.5t-60 -24.5zM238 1000v-876q2 -44 -14 -79t-45 -49q-86 -41 -158 31v5q29 -6 38.5 12.5t8.5 79.5v876h170z" />
    <glyph glyph-name="k" unicode="k" horiz-adv-x="505" 
d="M50 -3v1103h170v-1103h-170zM461 997l2 -321q-1 -72 -61 -117.5t-152 -45.5v1q8 2 14.5 6t11 10.5t7.5 12.5t5 16.5t3 18.5t1.5 22t0.5 23.5v27v28.5l-2 318h170zM290 0l1 337v28t0.5 27t0 24t-1.5 22t-3 18t-5 16.5t-7 12.5t-10.5 10t-14.5 6v1q92 0 151.5 -46.5
t59.5 -118.5v-337h-171z" />
    <glyph glyph-name="l" unicode="l" horiz-adv-x="296" 
d="M107 1q-27 13 -45 47.5t-16 61.5v990h175v-977q-1 -60 8.5 -76t39.5 -10v-5q-10 -10 -22.5 -18.5t-33.5 -18t-49 -8.5t-57 14z" />
    <glyph glyph-name="m" unicode="m" horiz-adv-x="756" 
d="M540 3v876q1 60 -8.5 76t-38.5 10v5q72 72 158 31q28 -13 44.5 -51.5t14.5 -83.5v-863h-170zM295 0v876q1 60 -8.5 76t-38.5 10v5q72 72 158 31q28 -13 44.5 -51.5t14.5 -83.5v-863h-170zM50 0v1000h170v-1000h-170z" />
    <glyph glyph-name="n" unicode="n" horiz-adv-x="511" 
d="M295 0v876q1 60 -8.5 76t-38.5 10v5q72 72 158 31q28 -13 44.5 -51.5t14.5 -83.5v-863h-170zM50 0v1000h170v-1000h-170z" />
    <glyph glyph-name="o" unicode="o" horiz-adv-x="532" 
d="M216 839v-678v-28t-0.5 -27t0 -24t1.5 -22t3 -18t5 -16.5t7 -12.5t10.5 -10t14.5 -6v-1q-92 0 -151.5 46.5t-59.5 118.5v678q0 72 59.5 118.5t151.5 46.5v-1q-8 -2 -14.5 -6t-10.5 -10t-7 -12.5t-5 -16.5t-3 -18t-1.5 -22t0 -24t0.5 -27v-28zM486 839v-678
q0 -72 -59.5 -118.5t-151.5 -46.5v1q8 2 14.5 6t10.5 10t7 12.5t5 16.5t3 18t1.5 22t0 24t-0.5 27v28v678v28t0.5 27t0 24t-1.5 22t-3 18t-5 16.5t-7 12.5t-10.5 10t-14.5 6v1q92 0 151.5 -46.5t59.5 -118.5z" />
    <glyph glyph-name="p" unicode="p" horiz-adv-x="519" 
d="M477 863v-727q2 -44 -14 -79t-45 -49q-86 -41 -158 31v5q29 -6 38.5 12.5t8.5 79.5v740q1 60 -8.5 76t-38.5 10v5q72 72 158 31q28 -13 44.5 -51.5t14.5 -83.5zM50 -100v1100h170v-1100h-170z" />
    <glyph glyph-name="q" unicode="q" horiz-adv-x="505" 
d="M212 863v-737q-1 -60 8.5 -76t38.5 -10v-5q-72 -72 -158 -31q-28 13 -44.5 51.5t-14.5 83.5v724q-2 44 14 79t45 49q86 41 158 -31v-5q-29 6 -38.5 -12.5t-8.5 -79.5zM285 -100v1100h170v-1100h-170z" />
    <glyph glyph-name="r" unicode="r" horiz-adv-x="523" 
d="M50 -1v1001h180v-1001h-180zM320 366l-1 474q0 41 -14 60.5t-58 19.5q24 78 118 78q125 0 125 -175v-457h-170z" />
    <glyph glyph-name="s" unicode="s" horiz-adv-x="496" 
d="M204 835v-209v-28t-0.5 -27t0 -24t1.5 -22t3 -18t5 -16.5t7 -12.5t10.5 -10t14.5 -6v-1q-92 0 -151.5 46.5t-59.5 118.5v209q0 72 59.5 118.5t151.5 46.5v-1q-8 -2 -14.5 -6t-10.5 -10t-7 -12.5t-5 -16.5t-3 -18t-1.5 -22t0 -24t0.5 -27v-28zM291 710v125v28t0.5 27t0 24
t-1.5 22t-3 18t-5 16.5t-7 12.5t-10.5 10t-14.5 6v1q92 0 151.5 -46.5t59.5 -118.5v-125h-170zM461 355v-190q0 -72 -59.5 -118.5t-151.5 -46.5v1q8 2 14.5 6t10.5 10t7 12.5t5 16.5t3 18t1.5 22t0 24t-0.5 27v28v190v28t0.5 27t0 24t-1.5 22t-3 18t-5 16.5t-7 12.5
t-10.5 10t-14.5 6v1q92 0 151.5 -46.5t59.5 -118.5zM204 291v-126v-28t-0.5 -27t0 -24t1.5 -22t3 -18t5 -16.5t7 -12.5t10.5 -10t14.5 -6v-1q-92 0 -151.5 46.5t-59.5 118.5v126h170z" />
    <glyph glyph-name="t" unicode="t" horiz-adv-x="389" 
d="M274 880v-761q-1 -60 8.5 -76t39.5 -10v-5q-10 -10 -22 -18.5t-33 -18t-49 -8.5t-57 14q-27 13 -44.5 47.5t-15.5 61.5v774h-71v120h71v100h173v-100h85v-120h-85z" />
    <glyph glyph-name="u" unicode="u" horiz-adv-x="528" 
d="M217 1000l-1 -877q-1 -60 8.5 -76t38.5 -10v-5q-72 -72 -158 -31q-28 13 -44.5 51.5t-14.5 83.5v864h171zM308 0v1000h170v-1000h-170z" />
    <glyph glyph-name="v" unicode="v" horiz-adv-x="517" 
d="M211 996l1 -838v-28t-0.5 -27t0 -24t1.5 -22t3 -18t5 -16.5t7 -12.5t10.5 -10t14.5 -6v-1q-92 0 -151.5 46.5t-59.5 118.5v838h169zM475 996l-1 -838q0 -72 -59.5 -118.5t-151.5 -46.5v1q8 2 14.5 6t10.5 10t7 12.5t5 16.5t3 18t1.5 22t0 24t-0.5 27v28v838h171z" />
    <glyph glyph-name="w" unicode="w" horiz-adv-x="794" 
d="M212 1000v-841v-28t-0.5 -27t0 -24t1.5 -22t3 -18t5 -16.5t7 -12.5t10.5 -10t14.5 -6v-1q-92 0 -151.5 46.5t-59.5 118.5v841h170zM276 -6v1q10 3 17 8t11.5 15.5t7 18.5t3 25.5t1 27.5t0 33.5t-0.5 35.5v841h164v-841q0 -12 -0.5 -35.5t0 -33.5t1 -27.5t3 -25.5t7 -18.5
t11.5 -15.5t17 -8v-1q-70 0 -121 40q-51 -40 -121 -40zM751 1000l1 -841q0 -72 -59.5 -118.5t-151.5 -46.5v1q8 2 14.5 6t10.5 10t7 12.5t5 16.5t3 18t1.5 22t0 24t-0.5 27v28v841h169z" />
    <glyph glyph-name="x" unicode="x" horiz-adv-x="507" 
d="M211 1000v-368v-28t-0.5 -27t0 -24t1.5 -22t3 -18t5 -16.5t7 -12.5t10.5 -10t14.5 -6v-1q-92 0 -151.5 46.5t-59.5 118.5v368h170zM466 1000v-368q0 -72 -59.5 -118.5t-151.5 -46.5v1q8 2 14.5 6t10.5 10t7 12.5t5 16.5t3 18t1.5 22t0 24t-0.5 27v28v368h170zM41 0v288
q0 72 59.5 118.5t151.5 46.5v-1q-8 -2 -14.5 -6t-10.5 -10t-7 -12.5t-5 -16.5t-3 -18t-1.5 -22t0 -24t0.5 -27v-28v-288h-170zM296 0v288v28t0.5 27t0 24t-1.5 22t-3 18t-5 16.5t-7 12.5t-10.5 10t-14.5 6v1q92 0 151.5 -46.5t59.5 -118.5v-288h-170z" />
    <glyph glyph-name="y" unicode="y" horiz-adv-x="512" 
d="M215 1000v-859q-1 -60 8.5 -76t38.5 -10v-5q-72 -72 -158 -31q-28 13 -44.5 51.5t-14.5 83.5v846h170zM462 1000v-939q0 -72 -59.5 -118.5t-151.5 -46.5v1q8 2 14.5 6t10.5 10t7 12.5t5 16.5t3 18t1.5 22t0 24t-0.5 27v28v939h170z" />
    <glyph glyph-name="z" unicode="z" horiz-adv-x="554" 
d="M21 0q12 0 19 6t10 13t9 26l251 820q2 4 7.5 17.5t8.5 19.5t9 17t15 20.5t21 20.5q45 40 162 40q-18 -10 -28 -19t-13 -24l-238 -815q-32 -71 -84.5 -106.5t-148.5 -35.5zM45 875v125h340q-36 -16 -68.5 -54t-40.5 -71h-231zM161 2q46 16 77.5 49t45.5 76h217v-125h-340z
" />
    <glyph glyph-name="braceleft" unicode="{" horiz-adv-x="324" 
d="M279 959q-26 6 -35 -10t-8 -76v-765q-1 -43 8.5 -57.5t34.5 -8.5v-5q-9 -10 -20 -18.5t-29.5 -18t-43.5 -8.5t-50 14q-26 13 -40 48t-14 80v338l-45 30l45 35v323q0 46 14.5 84t39.5 51t50 14t43.5 -8.5t29.5 -18t20 -18.5v-5z" />
    <glyph glyph-name="braceright" unicode="}" horiz-adv-x="324" 
d="M287 502l-45 -30v-338q0 -45 -14 -80t-40 -48q-25 -13 -50 -14t-43.5 8.5t-29.5 18t-20 18.5v5q25 -6 34.5 8.5t8.5 57.5v765q1 60 -8 76t-35 10v5q9 10 20 18.5t29.5 18t43.5 8.5t50 -14t39.5 -51t14.5 -84v-323z" />
    <glyph glyph-name="cent" unicode="&#xa2;" horiz-adv-x="680" 
 />
    <glyph glyph-name="currency" unicode="&#xa4;" horiz-adv-x="680" 
 />
    <glyph glyph-name="yen" unicode="&#xa5;" horiz-adv-x="680" 
 />
    <glyph glyph-name="dieresis" unicode="&#xa8;" 
 />
    <glyph glyph-name="guillemotleft" unicode="&#xab;" horiz-adv-x="760" 
 />
    <glyph glyph-name="macron" unicode="&#xaf;" 
 />
    <glyph glyph-name="acute" unicode="&#xb4;" 
 />
    <glyph glyph-name="periodcentered" unicode="&#xb7;" horiz-adv-x="270" 
d="M135 388q-35 0 -60 25t-25 60t25 60t60 25t60 -25t25 -60t-25 -60t-60 -25z" />
    <glyph glyph-name="cedilla" unicode="&#xb8;" 
 />
    <glyph glyph-name="guillemotright" unicode="&#xbb;" horiz-adv-x="760" 
 />
    <glyph glyph-name="Agrave" unicode="&#xc0;" 
d="M359 1048q-87 0 -135 32t-76 97l-11 38h149q10 -57 30 -114q13 -39 43 -53zM271 1012q92 0 151.5 -46.5t59.5 -118.5v-847h-170v388h-100v-388h-170v847q0 72 59.5 118.5t151.5 46.5v-1q-8 -2 -14.5 -6t-10.5 -10t-7 -12.5t-5 -16.5t-3 -18t-1.5 -22t0 -24t0.5 -27v-28
v-349h100v349v28t0.5 27t0 24t-1.5 22t-3 18t-5 16.5t-7 12.5t-10.5 10t-14.5 6v1z" />
    <glyph glyph-name="Aacute" unicode="&#xc1;" horiz-adv-x="524" 
d="M380 1176q-28 -65 -76 -97t-135 -32q30 14 43 53q20 57 30 114h149zM271 1012q92 0 151.5 -46.5t59.5 -118.5v-847h-170v388h-100v-388h-170v847q0 72 59.5 118.5t151.5 46.5v-1q-8 -2 -14.5 -6t-10.5 -10t-7 -12.5t-5 -16.5t-3 -18t-1.5 -22t0 -24t0.5 -27v-28v-349h100
v349v28t0.5 27t0 24t-1.5 22t-3 18t-5 16.5t-7 12.5t-10.5 10t-14.5 6v1z" />
    <glyph glyph-name="Acircumflex" unicode="&#xc2;" 
d="M413 1035q-24 0 -48.5 10.5t-38.5 21t-36 29.5l-28 24q-7 -5 -27 -23.5t-34 -29.5t-37.5 -21.5t-47.5 -10.5q30 14 43 53q19 56 30 115h151q11 -59 30 -115q13 -39 43 -53zM271 1012q92 0 151.5 -46.5t59.5 -118.5v-847h-170v388h-100v-388h-170v847q0 72 59.5 118.5
t151.5 46.5v-1q-8 -2 -14.5 -6t-10.5 -10t-7 -12.5t-5 -16.5t-3 -18t-1.5 -22t0 -24t0.5 -27v-28v-349h100v349v28t0.5 27t0 24t-1.5 22t-3 18t-5 16.5t-7 12.5t-10.5 10t-14.5 6v1z" />
    <glyph glyph-name="Atilde" unicode="&#xc3;" 
d="M232 1124q43 -6 72 17q50 38 84 75l108 -76l-28 -24q-38 -24 -72 -32.5t-75.5 0.5t-88.5 40zM213 1134q-48 -37 -84 -76l-109 75l28 24q38 24 72 32.5t75.5 -0.5t88.5 -40q-42 8 -71 -15zM271 1012q92 0 151.5 -46.5t59.5 -118.5v-847h-170v388h-100v-388h-170v847
q0 72 59.5 118.5t151.5 46.5v-1q-8 -2 -14.5 -6t-10.5 -10t-7 -12.5t-5 -16.5t-3 -18t-1.5 -22t0 -24t0.5 -27v-28v-349h100v349v28t0.5 27t0 24t-1.5 22t-3 18t-5 16.5t-7 12.5t-10.5 10t-14.5 6v1z" />
    <glyph glyph-name="Adieresis" unicode="&#xc4;" 
d="M376 1058q-31 0 -54 25t-23 59t22.5 57.5t54.5 23.5t54.5 -23.5t22.5 -57.5t-23 -59t-54 -25zM144 1057q-31 0 -54 24.5t-23 57.5q0 34 22.5 58.5t54.5 24.5t55 -24.5t23 -58.5q0 -33 -23.5 -57.5t-54.5 -24.5zM271 1012q92 0 151.5 -46.5t59.5 -118.5v-847h-170v388
h-100v-388h-170v847q0 72 59.5 118.5t151.5 46.5v-1q-8 -2 -14.5 -6t-10.5 -10t-7 -12.5t-5 -16.5t-3 -18t-1.5 -22t0 -24t0.5 -27v-28v-349h100v349v28t0.5 27t0 24t-1.5 22t-3 18t-5 16.5t-7 12.5t-10.5 10t-14.5 6v1z" />
    <glyph glyph-name="Aring" unicode="&#xc5;" 
d="M260 1054q-37 0 -63.5 27t-26.5 63q0 37 26.5 64t63.5 27t64 -27t27 -64q0 -36 -27 -63t-64 -27zM260 1187q-17 0 -29 -12t-12 -29t12 -29t29 -12t29.5 12t12.5 29t-12.5 29t-29.5 12zM271 1012q92 0 151.5 -46.5t59.5 -118.5v-847h-170v388h-100v-388h-170v847
q0 72 59.5 118.5t151.5 46.5v-1q-8 -2 -14.5 -6t-10.5 -10t-7 -12.5t-5 -16.5t-3 -18t-1.5 -22t0 -24t0.5 -27v-28v-349h100v349v28t0.5 27t0 24t-1.5 22t-3 18t-5 16.5t-7 12.5t-10.5 10t-14.5 6v1z" />
    <glyph glyph-name="AE" unicode="&#xc6;" horiz-adv-x="734" 
d="M379 1014h306v-135h-178q-11 45 -47.5 84t-80.5 51zM482 431v-301h202v-130h-372v388h-100v-388h-170v847q0 72 59.5 118.5t151.5 46.5v-1q-8 -2 -14.5 -6t-10.5 -10t-7 -12.5t-5 -16.5t-3 -18t-1.5 -22t0 -24t0.5 -27v-28v-349h100v349v28t0.5 27t0 24t-1.5 22t-3 18
t-5 16.5t-7 12.5t-10.5 10t-14.5 6v1q92 0 151.5 -46.5t59.5 -118.5v-306h192v-110h-192z" />
    <glyph glyph-name="Ccedilla" unicode="&#xc7;" 
d="M216 840v-680v-28t-0.5 -27t0 -24t1.5 -22t3 -18t5 -16.5t7 -12.5t10.5 -10t14.5 -6v-1q-92 0 -151.5 46.5t-59.5 118.5v680q0 72 59.5 118.5t151.5 46.5v-1q-8 -2 -14.5 -6t-10.5 -10t-7 -12.5t-5 -16.5t-3 -18t-1.5 -22t0 -24t0.5 -27v-28zM316 720v120v28t0.5 27t0 24
t-1.5 22t-3 18t-5 16.5t-7 12.5t-10.5 10t-14.5 6v1q92 0 151.5 -46.5t59.5 -118.5v-120h-170zM486 280v-120q0 -72 -59.5 -118.5t-151.5 -46.5v1q8 2 14.5 6t10.5 10t7 12.5t5 16.5t3 18t1.5 22t0 24t-0.5 27v28v120h170zM195 -42h149q0 -62 -53.5 -106.5t-131.5 -44.5v1
q22 6 29 39.5t7 110.5z" />
    <glyph glyph-name="Egrave" unicode="&#xc8;" 
d="M344 1046q-87 0 -135 32t-76 97l-11 38h149q11 -57 30 -114q13 -39 43 -53zM134 1000h306v-135h-178q-11 45 -47.5 84t-80.5 51zM242 417v-287h197v-130h-367v830v28t0.5 27t0 24t-1.5 22t-3 18t-5 16.5t-7 12.5t-10.5 10t-14.5 6v1q92 0 151.5 -46.5t59.5 -118.5v-303
h187v-110h-187z" />
    <glyph glyph-name="Eacute" unicode="&#xc9;" 
d="M352 1174q-28 -65 -76 -97t-135 -32q30 14 43 53q20 57 30 114h149zM134 1000h306v-135h-178q-11 45 -47.5 84t-80.5 51zM242 417v-287h197v-130h-367v830v28t0.5 27t0 24t-1.5 22t-3 18t-5 16.5t-7 12.5t-10.5 10t-14.5 6v1q92 0 151.5 -46.5t59.5 -118.5v-303h187v-110
h-187z" />
    <glyph glyph-name="Ecircumflex" unicode="&#xca;" 
d="M384 1044q-24 0 -48.5 10.5t-38.5 21t-36 29.5l-28 24q-7 -5 -27 -23.5t-34 -29.5t-37.5 -21.5t-47.5 -10.5q30 14 43 53q19 56 30 115h151q11 -59 30 -115q13 -39 43 -53zM134 1000h306v-135h-178q-11 45 -47.5 84t-80.5 51zM242 417v-287h197v-130h-367v830v28t0.5 27
t0 24t-1.5 22t-3 18t-5 16.5t-7 12.5t-10.5 10t-14.5 6v1q92 0 151.5 -46.5t59.5 -118.5v-303h187v-110h-187z" />
    <glyph glyph-name="Edieresis" unicode="&#xcb;" 
d="M355 1068q-31 0 -54 25t-23 59t22.5 57.5t54.5 23.5t54.5 -23.5t22.5 -57.5t-23 -59t-54 -25zM123 1067q-31 0 -54 24.5t-23 57.5q0 34 22.5 58.5t54.5 24.5t55 -24.5t23 -58.5q0 -33 -23.5 -57.5t-54.5 -24.5zM134 1000h306v-135h-178q-11 45 -47.5 84t-80.5 51z
M242 417v-287h197v-130h-367v830v28t0.5 27t0 24t-1.5 22t-3 18t-5 16.5t-7 12.5t-10.5 10t-14.5 6v1q92 0 151.5 -46.5t59.5 -118.5v-303h187v-110h-187z" />
    <glyph glyph-name="Igrave" unicode="&#xcc;" horiz-adv-x="295" 
d="M46 1213h149q11 -57 30 -114q13 -39 43 -53q-87 0 -135 32t-76 97zM50 0v1000h170v-1000h-170z" />
    <glyph glyph-name="Iacute" unicode="&#xcd;" 
d="M253 1212l-11 -38q-28 -65 -76 -97t-135 -32q30 14 43 53q20 57 30 114h149zM50 0v1000h170v-1000h-170z" />
    <glyph glyph-name="Icircumflex" unicode="&#xce;" 
d="M-10 1044q30 14 43 53q19 56 30 115h151q11 -59 30 -115q13 -39 43 -53q-24 0 -48.5 10.5t-38.5 21t-36 29.5l-28 24q-7 -5 -27 -23.5t-34 -29.5t-37.5 -21.5t-47.5 -10.5zM50 0v1000h170v-1000h-170z" />
    <glyph glyph-name="Idieresis" unicode="&#xcf;" horiz-adv-x="486" 
d="M249 1233q32 0 54.5 -23.5t22.5 -57.5t-23 -59t-54 -25t-54 25t-23 59t22.5 57.5t54.5 23.5zM17 1232q32 0 55 -24.5t23 -58.5q0 -33 -23.5 -57.5t-54.5 -24.5t-54 24.5t-23 57.5q0 34 22.5 58.5t54.5 24.5zM50 0v1000h170v-1000h-170z" />
    <glyph glyph-name="Ntilde" unicode="&#xd1;" 
d="M505 1146l-28 -24q-38 -24 -72 -32.5t-75.5 0.5t-88.5 40q43 -6 72 17q50 38 84 75zM29 1139l28 24q38 24 72 32.5t75.5 -0.5t88.5 -40q-42 8 -71 -15q-48 -37 -84 -76zM312 0v866q1 60 -8.5 76t-38.5 10v5q72 72 158 31q28 -13 44.5 -51.5t14.5 -83.5v-853h-170zM42 0
v830q0 72 59.5 118.5t151.5 46.5v-1q-8 -2 -14.5 -6t-10.5 -10t-7 -12.5t-5 -16.5t-3 -18t-1.5 -22t0 -24t0.5 -27v-28v-830h-170z" />
    <glyph glyph-name="Ograve" unicode="&#xd2;" 
d="M131 1213h149q10 -57 30 -114q13 -39 43 -53q-87 0 -135 32t-76 97zM216 843v-685v-28t-0.5 -27t0 -24t1.5 -22t3 -18t5 -16.5t7 -12.5t10.5 -10t14.5 -6v-1q-92 0 -151.5 46.5t-59.5 118.5v685q0 72 59.5 118.5t151.5 46.5v-1q-8 -2 -14.5 -6t-10.5 -10t-7 -12.5
t-5 -16.5t-3 -18t-1.5 -22t0 -24t0.5 -27v-28zM486 843v-685q0 -72 -59.5 -118.5t-151.5 -46.5v1q8 2 14.5 6t10.5 10t7 12.5t5 16.5t3 18t1.5 22t0 24t-0.5 27v28v685v28t0.5 27t0 24t-1.5 22t-3 18t-5 16.5t-7 12.5t-10.5 10t-14.5 6v1q92 0 151.5 -46.5t59.5 -118.5z" />
    <glyph glyph-name="Oacute" unicode="&#xd3;" 
d="M383 1212l-11 -38q-28 -65 -76 -97t-135 -32q30 14 43 53q20 57 30 114h149zM216 843v-685v-28t-0.5 -27t0 -24t1.5 -22t3 -18t5 -16.5t7 -12.5t10.5 -10t14.5 -6v-1q-92 0 -151.5 46.5t-59.5 118.5v685q0 72 59.5 118.5t151.5 46.5v-1q-8 -2 -14.5 -6t-10.5 -10
t-7 -12.5t-5 -16.5t-3 -18t-1.5 -22t0 -24t0.5 -27v-28zM486 843v-685q0 -72 -59.5 -118.5t-151.5 -46.5v1q8 2 14.5 6t10.5 10t7 12.5t5 16.5t3 18t1.5 22t0 24t-0.5 27v28v685v28t0.5 27t0 24t-1.5 22t-3 18t-5 16.5t-7 12.5t-10.5 10t-14.5 6v1q92 0 151.5 -46.5
t59.5 -118.5z" />
    <glyph glyph-name="Ocircumflex" unicode="&#xd4;" 
d="M121 1034q30 14 43 53q19 56 30 115h151q11 -59 30 -115q13 -39 43 -53q-24 0 -48.5 10.5t-38.5 21t-36 29.5l-28 24q-7 -5 -27 -23.5t-34 -29.5t-37.5 -21.5t-47.5 -10.5zM216 843v-685v-28t-0.5 -27t0 -24t1.5 -22t3 -18t5 -16.5t7 -12.5t10.5 -10t14.5 -6v-1
q-92 0 -151.5 46.5t-59.5 118.5v685q0 72 59.5 118.5t151.5 46.5v-1q-8 -2 -14.5 -6t-10.5 -10t-7 -12.5t-5 -16.5t-3 -18t-1.5 -22t0 -24t0.5 -27v-28zM486 843v-685q0 -72 -59.5 -118.5t-151.5 -46.5v1q8 2 14.5 6t10.5 10t7 12.5t5 16.5t3 18t1.5 22t0 24t-0.5 27v28v685
v28t0.5 27t0 24t-1.5 22t-3 18t-5 16.5t-7 12.5t-10.5 10t-14.5 6v1q92 0 151.5 -46.5t59.5 -118.5z" />
    <glyph glyph-name="Otilde" unicode="&#xd5;" 
d="M502 1146l-28 -24q-38 -24 -72 -32.5t-75.5 0.5t-88.5 40q43 -6 72 17q50 38 84 75zM26 1139l28 24q38 24 72 32.5t75.5 -0.5t88.5 -40q-42 8 -71 -15q-48 -37 -84 -76zM216 843v-685v-28t-0.5 -27t0 -24t1.5 -22t3 -18t5 -16.5t7 -12.5t10.5 -10t14.5 -6v-1
q-92 0 -151.5 46.5t-59.5 118.5v685q0 72 59.5 118.5t151.5 46.5v-1q-8 -2 -14.5 -6t-10.5 -10t-7 -12.5t-5 -16.5t-3 -18t-1.5 -22t0 -24t0.5 -27v-28zM486 843v-685q0 -72 -59.5 -118.5t-151.5 -46.5v1q8 2 14.5 6t10.5 10t7 12.5t5 16.5t3 18t1.5 22t0 24t-0.5 27v28v685
v28t0.5 27t0 24t-1.5 22t-3 18t-5 16.5t-7 12.5t-10.5 10t-14.5 6v1q92 0 151.5 -46.5t59.5 -118.5z" />
    <glyph glyph-name="Odieresis" unicode="&#xd6;" 
d="M376 1233q32 0 54.5 -23.5t22.5 -57.5t-23 -59t-54 -25t-54 25t-23 59t22.5 57.5t54.5 23.5zM144 1232q32 0 55 -24.5t23 -58.5q0 -33 -23.5 -57.5t-54.5 -24.5t-54 24.5t-23 57.5q0 34 22.5 58.5t54.5 24.5zM216 843v-685v-28t-0.5 -27t0 -24t1.5 -22t3 -18t5 -16.5
t7 -12.5t10.5 -10t14.5 -6v-1q-92 0 -151.5 46.5t-59.5 118.5v685q0 72 59.5 118.5t151.5 46.5v-1q-8 -2 -14.5 -6t-10.5 -10t-7 -12.5t-5 -16.5t-3 -18t-1.5 -22t0 -24t0.5 -27v-28zM486 843v-685q0 -72 -59.5 -118.5t-151.5 -46.5v1q8 2 14.5 6t10.5 10t7 12.5t5 16.5
t3 18t1.5 22t0 24t-0.5 27v28v685v28t0.5 27t0 24t-1.5 22t-3 18t-5 16.5t-7 12.5t-10.5 10t-14.5 6v1q92 0 151.5 -46.5t59.5 -118.5z" />
    <glyph glyph-name="Oslash" unicode="&#xd8;" 
d="M216 843v-685v-28t-0.5 -27t0 -24t1.5 -22t3 -18t5 -16.5t7 -12.5t10.5 -10t14.5 -6v-1q-92 0 -151.5 46.5t-59.5 118.5v685q0 72 59.5 118.5t151.5 46.5v-1q-8 -2 -14.5 -6t-10.5 -10t-7 -12.5t-5 -16.5t-3 -18t-1.5 -22t0 -24t0.5 -27v-28zM486 843v-685
q0 -72 -59.5 -118.5t-151.5 -46.5v1q8 2 14.5 6t10.5 10t7 12.5t5 16.5t3 18t1.5 22t0 24t-0.5 27v28v685v28t0.5 27t0 24t-1.5 22t-3 18t-5 16.5t-7 12.5t-10.5 10t-14.5 6v1q92 0 151.5 -46.5t59.5 -118.5z" />
    <glyph glyph-name="Ugrave" unicode="&#xd9;" 
d="M141 1213h149q10 -57 30 -114q13 -39 43 -53q-87 0 -135 32t-76 97zM214 1000l1 -872q-1 -60 8.5 -76t38.5 -10v-5q-72 -72 -158 -31q-28 13 -44.5 51.5t-14.5 83.5v859h169zM478 1000l-1 -840q0 -72 -59.5 -118.5t-151.5 -46.5v1q8 2 14.5 6t10.5 10t7 12.5t5 16.5t3 18
t1.5 22t0 24t-0.5 27v28v840h171z" />
    <glyph glyph-name="Uacute" unicode="&#xda;" 
d="M383 1212l-11 -38q-28 -65 -76 -97t-135 -32q30 14 43 53q20 57 30 114h149zM214 1000l1 -872q-1 -60 8.5 -76t38.5 -10v-5q-72 -72 -158 -31q-28 13 -44.5 51.5t-14.5 83.5v859h169zM478 1000l-1 -840q0 -72 -59.5 -118.5t-151.5 -46.5v1q8 2 14.5 6t10.5 10t7 12.5
t5 16.5t3 18t1.5 22t0 24t-0.5 27v28v840h171z" />
    <glyph glyph-name="Ucircumflex" unicode="&#xdb;" 
d="M114 1048q30 14 43 53q19 56 30 115h151q11 -59 30 -115q13 -39 43 -53q-24 0 -48.5 10.5t-38.5 21t-36 29.5l-28 24q-7 -5 -27 -23.5t-34 -29.5t-37.5 -21.5t-47.5 -10.5zM214 1000l1 -872q-1 -60 8.5 -76t38.5 -10v-5q-72 -72 -158 -31q-28 13 -44.5 51.5t-14.5 83.5
v859h169zM478 1000l-1 -840q0 -72 -59.5 -118.5t-151.5 -46.5v1q8 2 14.5 6t10.5 10t7 12.5t5 16.5t3 18t1.5 22t0 24t-0.5 27v28v840h171z" />
    <glyph glyph-name="Udieresis" unicode="&#xdc;" 
d="M373 1233q32 0 54.5 -23.5t22.5 -57.5t-23 -59t-54 -25t-54 25t-23 59t22.5 57.5t54.5 23.5zM141 1232q32 0 55 -24.5t23 -58.5q0 -33 -23.5 -57.5t-54.5 -24.5t-54 24.5t-23 57.5q0 34 22.5 58.5t54.5 24.5zM214 1000l1 -872q-1 -60 8.5 -76t38.5 -10v-5
q-72 -72 -158 -31q-28 13 -44.5 51.5t-14.5 83.5v859h169zM478 1000l-1 -840q0 -72 -59.5 -118.5t-151.5 -46.5v1q8 2 14.5 6t10.5 10t7 12.5t5 16.5t3 18t1.5 22t0 24t-0.5 27v28v840h171z" />
    <glyph glyph-name="Yacute" unicode="&#xdd;" 
d="M362 1174q-28 -65 -76 -97t-135 -32q30 14 43 53q20 57 30 114h149zM106 212q-28 13 -44.5 51.5t-14.5 83.5v653h170v-666q-1 -60 8.5 -76t38.5 -10v-5q-72 -72 -158 -31zM302 1000h170v-835q0 -72 -59.5 -118.5t-151.5 -46.5v1q8 2 14.5 6t10.5 10t7 12.5t5 16.5t3 18
t1.5 22t0 24t-0.5 27v28v835zM43 160v5v-5zM213 165v-5v5zM213 160v-27v-26v-23t1 -21.5t3 -17.5t5 -16t7.5 -12.5t10.5 -10t14 -5.5v-1q-90 0 -149.5 45t-61.5 115h170z" />
    <glyph glyph-name="Thorn" unicode="&#xde;" 
d="M50 0v1000h170v-1000h-170zM477 772v-548q2 -44 -14 -79t-45 -49q-86 -41 -158 31v5q29 -6 38.5 12.5t8.5 79.5v561q1 60 -8.5 76t-38.5 10v5q72 72 158 31q28 -13 44.5 -51.5t14.5 -83.5z" />
    <glyph glyph-name="germandbls" unicode="&#xdf;" horiz-adv-x="522" 
d="M50 -101v947q0 72 59.5 118.5t151.5 46.5v-1q-8 -2 -14.5 -6t-10.5 -10t-7 -12.5t-5 -16.5t-3 -18t-1.5 -22t0 -24t0.5 -27v-28v-947h-170zM485 846v-203q0 -72 -59.5 -118.5t-151.5 -46.5v1q8 2 14.5 6t10.5 10t7 12.5t5 16.5t3 18t1.5 22t0 24t-0.5 27v28v203v28
t0.5 27t0 24t-1.5 22t-3 18t-5 16.5t-7 12.5t-10.5 10t-14.5 6v1q92 0 151.5 -46.5t59.5 -118.5zM485 301v-136q0 -72 -59.5 -118.5t-151.5 -46.5v1q8 2 14.5 6t10.5 10t7 12.5t5 16.5t3 18t1.5 22t0 24t-0.5 27v28v136v28t0.5 27t0 24t-1.5 22t-3 18t-5 16.5t-7 12.5
t-10.5 10t-14.5 6v1q92 0 151.5 -46.5t59.5 -118.5z" />
    <glyph glyph-name="agrave" unicode="&#xe0;" 
d="M141 1213h149q10 -57 30 -114q13 -39 43 -53q-87 0 -135 32t-76 97zM212 864v-735q-1 -60 8.5 -76t38.5 -10v-5q-72 -72 -158 -31q-28 13 -44.5 51.5t-14.5 83.5v722q-2 44 14 79t45 49q86 41 158 -31v-5q-29 6 -38.5 -12.5t-8.5 -79.5zM295 0v1000h170v-1000h-170z" />
    <glyph glyph-name="aacute" unicode="&#xe1;" horiz-adv-x="515" 
d="M383 1212l-11 -38q-28 -65 -76 -97t-135 -32q30 14 43 53q20 57 30 114h149zM212 864v-735q-1 -60 8.5 -76t38.5 -10v-5q-72 -72 -158 -31q-28 13 -44.5 51.5t-14.5 83.5v722q-2 44 14 79t45 49q86 41 158 -31v-5q-29 6 -38.5 -12.5t-8.5 -79.5zM295 0v1000h170v-1000
h-170z" />
    <glyph glyph-name="acircumflex" unicode="&#xe2;" horiz-adv-x="515" 
d="M117 1057q30 14 43 53q19 56 30 115h151q11 -59 30 -115q13 -39 43 -53q-24 0 -48.5 10.5t-38.5 21t-36 29.5l-28 24q-7 -5 -27 -23.5t-34 -29.5t-37.5 -21.5t-47.5 -10.5zM212 864v-735q-1 -60 8.5 -76t38.5 -10v-5q-72 -72 -158 -31q-28 13 -44.5 51.5t-14.5 83.5v722
q-2 44 14 79t45 49q86 41 158 -31v-5q-29 6 -38.5 -12.5t-8.5 -79.5zM295 0v1000h170v-1000h-170z" />
    <glyph glyph-name="atilde" unicode="&#xe3;" 
d="M502 1146l-28 -24q-38 -24 -72 -32.5t-75.5 0.5t-88.5 40q43 -6 72 17q50 38 84 75zM26 1139l28 24q38 24 72 32.5t75.5 -0.5t88.5 -40q-42 8 -71 -15q-48 -37 -84 -76zM212 864v-735q-1 -60 8.5 -76t38.5 -10v-5q-72 -72 -158 -31q-28 13 -44.5 51.5t-14.5 83.5v722
q-2 44 14 79t45 49q86 41 158 -31v-5q-29 6 -38.5 -12.5t-8.5 -79.5zM295 0v1000h170v-1000h-170z" />
    <glyph glyph-name="adieresis" unicode="&#xe4;" horiz-adv-x="515" 
d="M381 1233q32 0 54.5 -23.5t22.5 -57.5t-23 -59t-54 -25t-54 25t-23 59t22.5 57.5t54.5 23.5zM149 1232q32 0 55 -24.5t23 -58.5q0 -33 -23.5 -57.5t-54.5 -24.5t-54 24.5t-23 57.5q0 34 22.5 58.5t54.5 24.5zM212 864v-735q-1 -60 8.5 -76t38.5 -10v-5q-72 -72 -158 -31
q-28 13 -44.5 51.5t-14.5 83.5v722q-2 44 14 79t45 49q86 41 158 -31v-5q-29 6 -38.5 -12.5t-8.5 -79.5zM295 0v1000h170v-1000h-170z" />
    <glyph glyph-name="aring" unicode="&#xe5;" 
d="M256 1060q-37 0 -63.5 27t-26.5 63q0 37 26.5 64t63.5 27t64 -27t27 -64q0 -36 -27 -63t-64 -27zM256 1111q17 0 29.5 12t12.5 29t-12.5 29t-29.5 12t-29 -12t-12 -29t12 -29t29 -12zM212 864v-735q-1 -60 8.5 -76t38.5 -10v-5q-72 -72 -158 -31q-28 13 -44.5 51.5
t-14.5 83.5v722q-2 44 14 79t45 49q86 41 158 -31v-5q-29 6 -38.5 -12.5t-8.5 -79.5zM295 0v1000h170v-1000h-170z" />
    <glyph glyph-name="ae" unicode="&#xe6;" horiz-adv-x="777" 
d="M212 864v-735q-1 -60 8.5 -76t38.5 -10v-5q-72 -72 -158 -31q-28 13 -44.5 51.5t-14.5 83.5v722q-2 44 14 79t45 49q86 41 158 -31v-5q-29 6 -38.5 -12.5t-8.5 -79.5zM295 -2v1007h211v-1q-37 -10 -41 -53v-872q3 -68 41 -78v-3h-211zM738 840v-375q2 -44 -14 -79
t-45 -49q-86 -41 -158 31v5q29 -6 38.5 12.5t8.5 79.5v375v28t0.5 27t0 24t-1.5 22t-3 18t-5 16.5t-7 12.5t-10.5 10t-14.5 6v1q92 0 151.5 -46.5t59.5 -118.5zM738 250v-88q0 -72 -59.5 -118.5t-151.5 -46.5v1q8 2 14.5 6t10.5 10t7 12.5t5 16.5t3 18t1.5 22t0 24t-0.5 27
v28v88h170z" />
    <glyph glyph-name="ccedilla" unicode="&#xe7;" horiz-adv-x="522" 
d="M216 840v-679v-28t-0.5 -27t0 -24t1.5 -22t3 -18t5 -16.5t7 -12.5t10.5 -10t14.5 -6v-1q-92 0 -151.5 46.5t-59.5 118.5v679q0 72 59.5 118.5t151.5 46.5v-1q-8 -2 -14.5 -6t-10.5 -10t-7 -12.5t-5 -16.5t-3 -18t-1.5 -22t0 -24t0.5 -27v-28zM316 720v120v28t0.5 27t0 24
t-1.5 22t-3 18t-5 16.5t-7 12.5t-10.5 10t-14.5 6v1q92 0 151.5 -46.5t59.5 -118.5v-120h-170zM486 280v-119q0 -72 -59.5 -118.5t-151.5 -46.5v1q8 2 14.5 6t10.5 10t7 12.5t5 16.5t3 18t1.5 22t0 24t-0.5 27v28v119h170zM197 -42h149q0 -62 -53.5 -106.5t-131.5 -44.5v1
q22 6 29 39.5t7 110.5z" />
    <glyph glyph-name="egrave" unicode="&#xe8;" 
d="M141 1213h149q10 -57 30 -114q13 -39 43 -53q-87 0 -135 32t-76 97zM212 840v-678v-28t-0.5 -27t0 -24t1.5 -22t3 -18t5 -16.5t7 -12.5t10.5 -10t14.5 -6v-1q-92 0 -151.5 46.5t-59.5 118.5v678q0 72 59.5 118.5t151.5 46.5v-1q-8 -2 -14.5 -6t-10.5 -10t-7 -12.5
t-5 -16.5t-3 -18t-1.5 -22t0 -24t0.5 -27v-28zM474 840v-375q2 -44 -14 -79t-45 -49q-86 -41 -158 31v5q29 -6 38.5 12.5t8.5 79.5v375v28t0.5 27t0 24t-1.5 22t-3 18t-5 16.5t-7 12.5t-10.5 10t-14.5 6v1q92 0 151.5 -46.5t59.5 -118.5zM474 250v-88q0 -72 -59.5 -118.5
t-151.5 -46.5v1q8 2 14.5 6t10.5 10t7 12.5t5 16.5t3 18t1.5 22t0 24t-0.5 27v28v88h170z" />
    <glyph glyph-name="eacute" unicode="&#xe9;" 
d="M387 1212l-11 -38q-28 -65 -76 -97t-135 -32q30 14 43 53q20 57 30 114h149zM212 840v-678v-28t-0.5 -27t0 -24t1.5 -22t3 -18t5 -16.5t7 -12.5t10.5 -10t14.5 -6v-1q-92 0 -151.5 46.5t-59.5 118.5v678q0 72 59.5 118.5t151.5 46.5v-1q-8 -2 -14.5 -6t-10.5 -10
t-7 -12.5t-5 -16.5t-3 -18t-1.5 -22t0 -24t0.5 -27v-28zM474 840v-375q2 -44 -14 -79t-45 -49q-86 -41 -158 31v5q29 -6 38.5 12.5t8.5 79.5v375v28t0.5 27t0 24t-1.5 22t-3 18t-5 16.5t-7 12.5t-10.5 10t-14.5 6v1q92 0 151.5 -46.5t59.5 -118.5zM474 250v-88
q0 -72 -59.5 -118.5t-151.5 -46.5v1q8 2 14.5 6t10.5 10t7 12.5t5 16.5t3 18t1.5 22t0 24t-0.5 27v28v88h170z" />
    <glyph glyph-name="ecircumflex" unicode="&#xea;" 
d="M115 1034q30 14 43 53q19 56 30 115h151q11 -59 30 -115q13 -39 43 -53q-24 0 -48.5 10.5t-38.5 21t-36 29.5l-28 24q-7 -5 -27 -23.5t-34 -29.5t-37.5 -21.5t-47.5 -10.5zM212 840v-678v-28t-0.5 -27t0 -24t1.5 -22t3 -18t5 -16.5t7 -12.5t10.5 -10t14.5 -6v-1
q-92 0 -151.5 46.5t-59.5 118.5v678q0 72 59.5 118.5t151.5 46.5v-1q-8 -2 -14.5 -6t-10.5 -10t-7 -12.5t-5 -16.5t-3 -18t-1.5 -22t0 -24t0.5 -27v-28zM474 840v-375q2 -44 -14 -79t-45 -49q-86 -41 -158 31v5q29 -6 38.5 12.5t8.5 79.5v375v28t0.5 27t0 24t-1.5 22t-3 18
t-5 16.5t-7 12.5t-10.5 10t-14.5 6v1q92 0 151.5 -46.5t59.5 -118.5zM474 250v-88q0 -72 -59.5 -118.5t-151.5 -46.5v1q8 2 14.5 6t10.5 10t7 12.5t5 16.5t3 18t1.5 22t0 24t-0.5 27v28v88h170z" />
    <glyph glyph-name="edieresis" unicode="&#xeb;" 
d="M376 1233q32 0 54.5 -23.5t22.5 -57.5t-23 -59t-54 -25t-54 25t-23 59t22.5 57.5t54.5 23.5zM144 1232q32 0 55 -24.5t23 -58.5q0 -33 -23.5 -57.5t-54.5 -24.5t-54 24.5t-23 57.5q0 34 22.5 58.5t54.5 24.5zM212 840v-678v-28t-0.5 -27t0 -24t1.5 -22t3 -18t5 -16.5
t7 -12.5t10.5 -10t14.5 -6v-1q-92 0 -151.5 46.5t-59.5 118.5v678q0 72 59.5 118.5t151.5 46.5v-1q-8 -2 -14.5 -6t-10.5 -10t-7 -12.5t-5 -16.5t-3 -18t-1.5 -22t0 -24t0.5 -27v-28zM474 840v-375q2 -44 -14 -79t-45 -49q-86 -41 -158 31v5q29 -6 38.5 12.5t8.5 79.5v375
v28t0.5 27t0 24t-1.5 22t-3 18t-5 16.5t-7 12.5t-10.5 10t-14.5 6v1q92 0 151.5 -46.5t59.5 -118.5zM474 250v-88q0 -72 -59.5 -118.5t-151.5 -46.5v1q8 2 14.5 6t10.5 10t7 12.5t5 16.5t3 18t1.5 22t0 24t-0.5 27v28v88h170z" />
    <glyph glyph-name="igrave" unicode="&#xec;" horiz-adv-x="337" 
d="M0 1213h149q11 -57 30 -114q13 -39 43 -53q-87 0 -135 32t-76 97zM106 1q-28 13 -45 47.5t-15 61.5v890h173v-877q-1 -60 9 -76t40 -10v-5q-75 -71 -162 -31z" />
    <glyph glyph-name="iacute" unicode="&#xed;" horiz-adv-x="337" 
d="M262 1212l-11 -38q-28 -65 -76 -97t-135 -32q30 14 43 53q19 57 30 114h149zM106 1q-28 13 -45 47.5t-15 61.5v890h173v-877q-1 -60 9 -76t40 -10v-5q-75 -71 -162 -31z" />
    <glyph glyph-name="icircumflex" unicode="&#xee;" horiz-adv-x="366" 
d="M0 1034q30 14 43 53q19 56 30 115h151q11 -59 30 -115q13 -39 43 -53q-24 0 -48.5 10.5t-38.5 21t-36 29.5l-28 24q-7 -5 -27 -23.5t-34 -29.5t-37.5 -21.5t-47.5 -10.5zM106 1q-28 13 -45 47.5t-15 61.5v890h173v-877q-1 -60 9 -76t40 -10v-5q-75 -71 -162 -31z" />
    <glyph glyph-name="idieresis" unicode="&#xef;" horiz-adv-x="308" 
d="M261 1233q32 0 54.5 -23.5t22.5 -57.5t-23 -59t-54 -25t-54 25t-23 59t22.5 57.5t54.5 23.5zM29 1232q32 0 55 -24.5t23 -58.5q0 -33 -23.5 -57.5t-54.5 -24.5t-54 24.5t-23 57.5q0 34 22.5 58.5t54.5 24.5zM106 1q-28 13 -45 47.5t-15 61.5v890h173v-877q-1 -60 9 -76
t40 -10v-5q-75 -71 -162 -31z" />
    <glyph glyph-name="ntilde" unicode="&#xf1;" horiz-adv-x="572" 
d="M526 1146l-28 -24q-38 -24 -72 -32.5t-75.5 0.5t-88.5 40q43 -6 72 17q50 38 84 75zM50 1139l28 24q38 24 72 32.5t75.5 -0.5t88.5 -40q-42 8 -71 -15q-48 -37 -84 -76zM295 0v876q1 60 -8.5 76t-38.5 10v5q72 72 158 31q28 -13 44.5 -51.5t14.5 -83.5v-863h-170zM50 0
v1000h170v-1000h-170z" />
    <glyph glyph-name="ograve" unicode="&#xf2;" 
d="M151 1213h149q10 -57 30 -114q13 -39 43 -53q-87 0 -135 32t-76 97zM216 839v-678v-28t-0.5 -27t0 -24t1.5 -22t3 -18t5 -16.5t7 -12.5t10.5 -10t14.5 -6v-1q-92 0 -151.5 46.5t-59.5 118.5v678q0 72 59.5 118.5t151.5 46.5v-1q-8 -2 -14.5 -6t-10.5 -10t-7 -12.5
t-5 -16.5t-3 -18t-1.5 -22t0 -24t0.5 -27v-28zM486 839v-678q0 -72 -59.5 -118.5t-151.5 -46.5v1q8 2 14.5 6t10.5 10t7 12.5t5 16.5t3 18t1.5 22t0 24t-0.5 27v28v678v28t0.5 27t0 24t-1.5 22t-3 18t-5 16.5t-7 12.5t-10.5 10t-14.5 6v1q92 0 151.5 -46.5t59.5 -118.5z" />
    <glyph glyph-name="oacute" unicode="&#xf3;" 
d="M374 1212l-11 -38q-28 -65 -76 -97t-135 -32q30 14 43 53q19 57 30 114h149zM216 839v-678v-28t-0.5 -27t0 -24t1.5 -22t3 -18t5 -16.5t7 -12.5t10.5 -10t14.5 -6v-1q-92 0 -151.5 46.5t-59.5 118.5v678q0 72 59.5 118.5t151.5 46.5v-1q-8 -2 -14.5 -6t-10.5 -10
t-7 -12.5t-5 -16.5t-3 -18t-1.5 -22t0 -24t0.5 -27v-28zM486 839v-678q0 -72 -59.5 -118.5t-151.5 -46.5v1q8 2 14.5 6t10.5 10t7 12.5t5 16.5t3 18t1.5 22t0 24t-0.5 27v28v678v28t0.5 27t0 24t-1.5 22t-3 18t-5 16.5t-7 12.5t-10.5 10t-14.5 6v1q92 0 151.5 -46.5
t59.5 -118.5z" />
    <glyph glyph-name="ocircumflex" unicode="&#xf4;" 
d="M123 1034q30 14 43 53q19 56 30 115h151q11 -59 30 -115q13 -39 43 -53q-24 0 -48.5 10.5t-38.5 21t-36 29.5l-28 24q-7 -5 -27 -23.5t-34 -29.5t-37.5 -21.5t-47.5 -10.5zM216 839v-678v-28t-0.5 -27t0 -24t1.5 -22t3 -18t5 -16.5t7 -12.5t10.5 -10t14.5 -6v-1
q-92 0 -151.5 46.5t-59.5 118.5v678q0 72 59.5 118.5t151.5 46.5v-1q-8 -2 -14.5 -6t-10.5 -10t-7 -12.5t-5 -16.5t-3 -18t-1.5 -22t0 -24t0.5 -27v-28zM486 839v-678q0 -72 -59.5 -118.5t-151.5 -46.5v1q8 2 14.5 6t10.5 10t7 12.5t5 16.5t3 18t1.5 22t0 24t-0.5 27v28v678
v28t0.5 27t0 24t-1.5 22t-3 18t-5 16.5t-7 12.5t-10.5 10t-14.5 6v1q92 0 151.5 -46.5t59.5 -118.5z" />
    <glyph glyph-name="otilde" unicode="&#xf5;" 
d="M513 1146l-28 -24q-38 -24 -72 -32.5t-75.5 0.5t-88.5 40q43 -6 72 17q50 38 84 75zM37 1139l28 24q38 24 72 32.5t75.5 -0.5t88.5 -40q-42 8 -71 -15q-48 -37 -84 -76zM216 839v-678v-28t-0.5 -27t0 -24t1.5 -22t3 -18t5 -16.5t7 -12.5t10.5 -10t14.5 -6v-1
q-92 0 -151.5 46.5t-59.5 118.5v678q0 72 59.5 118.5t151.5 46.5v-1q-8 -2 -14.5 -6t-10.5 -10t-7 -12.5t-5 -16.5t-3 -18t-1.5 -22t0 -24t0.5 -27v-28zM486 839v-678q0 -72 -59.5 -118.5t-151.5 -46.5v1q8 2 14.5 6t10.5 10t7 12.5t5 16.5t3 18t1.5 22t0 24t-0.5 27v28v678
v28t0.5 27t0 24t-1.5 22t-3 18t-5 16.5t-7 12.5t-10.5 10t-14.5 6v1q92 0 151.5 -46.5t59.5 -118.5z" />
    <glyph glyph-name="odieresis" unicode="&#xf6;" horiz-adv-x="532" 
d="M385 1233q32 0 54.5 -23.5t22.5 -57.5t-23 -59t-54 -25t-54 25t-23 59t22.5 57.5t54.5 23.5zM153 1232q32 0 55 -24.5t23 -58.5q0 -33 -23.5 -57.5t-54.5 -24.5t-54 24.5t-23 57.5q0 34 22.5 58.5t54.5 24.5zM216 839v-678v-28t-0.5 -27t0 -24t1.5 -22t3 -18t5 -16.5
t7 -12.5t10.5 -10t14.5 -6v-1q-92 0 -151.5 46.5t-59.5 118.5v678q0 72 59.5 118.5t151.5 46.5v-1q-8 -2 -14.5 -6t-10.5 -10t-7 -12.5t-5 -16.5t-3 -18t-1.5 -22t0 -24t0.5 -27v-28zM486 839v-678q0 -72 -59.5 -118.5t-151.5 -46.5v1q8 2 14.5 6t10.5 10t7 12.5t5 16.5
t3 18t1.5 22t0 24t-0.5 27v28v678v28t0.5 27t0 24t-1.5 22t-3 18t-5 16.5t-7 12.5t-10.5 10t-14.5 6v1q92 0 151.5 -46.5t59.5 -118.5z" />
    <glyph glyph-name="ugrave" unicode="&#xf9;" 
d="M121 1213h149q10 -57 30 -114q13 -39 43 -53q-87 0 -135 32t-76 97zM217 1000l-1 -877q-1 -60 8.5 -76t38.5 -10v-5q-72 -72 -158 -31q-28 13 -44.5 51.5t-14.5 83.5v864h171zM308 0v1000h170v-1000h-170z" />
    <glyph glyph-name="uacute" unicode="&#xfa;" 
d="M373 1212l-11 -38q-28 -65 -76 -97t-135 -32q30 14 43 53q20 57 30 114h149zM217 1000l-1 -877q-1 -60 8.5 -76t38.5 -10v-5q-72 -72 -158 -31q-28 13 -44.5 51.5t-14.5 83.5v864h171zM308 0v1000h170v-1000h-170z" />
    <glyph glyph-name="ucircumflex" unicode="&#xfb;" 
d="M117 1034q30 14 43 53q19 56 30 115h151q11 -59 30 -115q13 -39 43 -53q-24 0 -48.5 10.5t-38.5 21t-36 29.5l-28 24q-7 -5 -27 -23.5t-34 -29.5t-37.5 -21.5t-47.5 -10.5zM217 1000l-1 -877q-1 -60 8.5 -76t38.5 -10v-5q-72 -72 -158 -31q-28 13 -44.5 51.5t-14.5 83.5
v864h171zM308 0v1000h170v-1000h-170z" />
    <glyph glyph-name="udieresis" unicode="&#xfc;" horiz-adv-x="528" 
d="M375 1233q32 0 54.5 -23.5t22.5 -57.5t-23 -59t-54 -25t-54 25t-23 59t22.5 57.5t54.5 23.5zM143 1232q32 0 55 -24.5t23 -58.5q0 -33 -23.5 -57.5t-54.5 -24.5t-54 24.5t-23 57.5q0 34 22.5 58.5t54.5 24.5zM217 1000l-1 -877q-1 -60 8.5 -76t38.5 -10v-5
q-72 -72 -158 -31q-28 13 -44.5 51.5t-14.5 83.5v864h171zM308 0v1000h170v-1000h-170z" />
    <glyph glyph-name="yacute" unicode="&#xfd;" 
d="M373 1212l-11 -38q-28 -65 -76 -97t-135 -32q30 14 43 53q20 57 30 114h149zM215 1000v-859q-1 -60 8.5 -76t38.5 -10v-5q-72 -72 -158 -31q-28 13 -44.5 51.5t-14.5 83.5v846h170zM462 1000v-939q0 -72 -59.5 -118.5t-151.5 -46.5v1q8 2 14.5 6t10.5 10t7 12.5t5 16.5
t3 18t1.5 22t0 24t-0.5 27v28v939h170z" />
    <glyph glyph-name="thorn" unicode="&#xfe;" horiz-adv-x="515" 
d="M50 -100v1205h170v-1205h-170zM477 863v-727q2 -44 -14 -79t-45 -49q-86 -41 -158 31v5q29 -6 38.5 12.5t8.5 79.5v740q1 60 -8.5 76t-38.5 10v5q72 72 158 31q28 -13 44.5 -51.5t14.5 -83.5z" />
    <glyph glyph-name="ydieresis" unicode="&#xff;" 
d="M365 1233q32 0 54.5 -23.5t22.5 -57.5t-23 -59t-54 -25t-54 25t-23 59t22.5 57.5t54.5 23.5zM133 1232q32 0 55 -24.5t23 -58.5q0 -33 -23.5 -57.5t-54.5 -24.5t-54 24.5t-23 57.5q0 34 22.5 58.5t54.5 24.5zM215 1000v-859q-1 -60 8.5 -76t38.5 -10v-5q-72 -72 -158 -31
q-28 13 -44.5 51.5t-14.5 83.5v846h170zM462 1000v-939q0 -72 -59.5 -118.5t-151.5 -46.5v1q8 2 14.5 6t10.5 10t7 12.5t5 16.5t3 18t1.5 22t0 24t-0.5 27v28v939h170z" />
    <glyph glyph-name="dotlessi" unicode="&#x131;" horiz-adv-x="295" 
d="M106 1q-28 13 -45 47.5t-15 61.5v890h173v-877q-1 -60 9 -76t40 -10v-5q-75 -71 -162 -31z" />
    <glyph glyph-name="OE" unicode="&#x152;" horiz-adv-x="738" 
d="M383 1008h306v-135h-178q-11 45 -47.5 84t-80.5 51zM46 837q0 72 59.5 118.5t151.5 46.5v-1q-8 -2 -14.5 -6t-10.5 -10t-7 -12.5t-5 -16.5t-3 -18t-1.5 -22t0 -24t0.5 -27v-28v-679v-28t-0.5 -27t0 -24t1.5 -22t3 -18t5 -16.5t7 -12.5t10.5 -10t14.5 -6v-1
q-92 0 -151.5 46.5t-59.5 118.5v679zM486 158q0 -16 -3 -31h205v-134h-413v1q12 3 20 10.5t12.5 14t6.5 20t2.5 19t0 20.5t-0.5 16v743v28t0.5 27t0 24t-1.5 22t-3 18t-5 16.5t-7 12.5t-10.5 10t-14.5 6v1q92 0 151.5 -46.5t59.5 -118.5v-310h192v-110h-192v-259z" />
    <glyph glyph-name="oe" unicode="&#x153;" horiz-adv-x="788" 
d="M275 -4v1q41 19 41 167v675v28t0.5 27t0 24t-1.5 22t-3 18t-5 16.5t-7 12.5t-10.5 10t-14.5 6v1q71 0 121 -43q42 44 132 44v-1q-10 -3 -17.5 -10t-12 -19.5t-7 -23t-3.5 -30l-1.5 -30t0 -33t0.5 -29.5v-667v-28t-0.5 -27t0 -24t1.5 -22t3 -18t5 -16.5t7 -12.5t10.5 -10
t14.5 -6v-1q-35 0 -73 13.5t-59 32.5q-41 -44 -121 -47zM749 840v-375q2 -44 -14 -79t-45 -49q-86 -41 -158 31v5q29 -6 38.5 12.5t8.5 79.5v375v28t0.5 27t0 24t-1.5 22t-3 18t-5 16.5t-7 12.5t-10.5 10t-14.5 6v1q92 0 151.5 -46.5t59.5 -118.5zM216 839v-678v-28
t-0.5 -27t0 -24t1.5 -22t3 -18t5 -16.5t7 -12.5t10.5 -10t14.5 -6v-1q-92 0 -151.5 46.5t-59.5 118.5v678q0 72 59.5 118.5t151.5 46.5v-1q-8 -2 -14.5 -6t-10.5 -10t-7 -12.5t-5 -16.5t-3 -18t-1.5 -22t0 -24t0.5 -27v-28zM749 250v-88q0 -72 -59.5 -118.5t-151.5 -46.5v1
q8 2 14.5 6t10.5 10t7 12.5t5 16.5t3 18t1.5 22t0 24t-0.5 27v28v88h170z" />
    <glyph glyph-name="Wcircumflex" unicode="&#x174;" horiz-adv-x="794" 
d="M246 1041q30 14 43 53q19 56 30 115h151q11 -59 30 -115q13 -39 43 -53q-24 0 -48.5 10.5t-38.5 21t-36 29.5l-28 24q-7 -5 -27 -23.5t-34 -29.5t-37.5 -21.5t-47.5 -10.5zM212 1000v-841v-28t-0.5 -27t0 -24t1.5 -22t3 -18t5 -16.5t7 -12.5t10.5 -10t14.5 -6v-1
q-92 0 -151.5 46.5t-59.5 118.5v841h170zM276 -6v1q10 3 17 8t11.5 15.5t7 18.5t3 25.5t1 27.5t0 33.5t-0.5 35.5v841h164v-841q0 -12 -0.5 -35.5t0 -33.5t1 -27.5t3 -25.5t7 -18.5t11.5 -15.5t17 -8v-1q-70 0 -121 40q-51 -40 -121 -40zM751 1000l1 -841
q0 -72 -59.5 -118.5t-151.5 -46.5v1q8 2 14.5 6t10.5 10t7 12.5t5 16.5t3 18t1.5 22t0 24t-0.5 27v28v841h169z" />
    <glyph glyph-name="wcircumflex" unicode="&#x175;" 
d="M257 1034q30 14 43 53q19 56 30 115h151q11 -59 30 -115q13 -39 43 -53q-24 0 -48.5 10.5t-38.5 21t-36 29.5l-28 24q-7 -5 -27 -23.5t-34 -29.5t-37.5 -21.5t-47.5 -10.5zM212 1000v-841v-28t-0.5 -27t0 -24t1.5 -22t3 -18t5 -16.5t7 -12.5t10.5 -10t14.5 -6v-1
q-92 0 -151.5 46.5t-59.5 118.5v841h170zM276 -6v1q10 3 17 8t11.5 15.5t7 18.5t3 25.5t1 27.5t0 33.5t-0.5 35.5v841h164v-841q0 -12 -0.5 -35.5t0 -33.5t1 -27.5t3 -25.5t7 -18.5t11.5 -15.5t17 -8v-1q-70 0 -121 40q-51 -40 -121 -40zM751 1000l1 -841
q0 -72 -59.5 -118.5t-151.5 -46.5v1q8 2 14.5 6t10.5 10t7 12.5t5 16.5t3 18t1.5 22t0 24t-0.5 27v28v841h169z" />
    <glyph glyph-name="Ycircumflex" unicode="&#x176;" 
d="M413 1034q-24 0 -48.5 10.5t-38.5 21t-36 29.5l-28 24q-7 -5 -27 -23.5t-34 -29.5t-37.5 -21.5t-47.5 -10.5q30 14 43 53q19 56 30 115h151q11 -59 30 -115q13 -39 43 -53zM106 212q-28 13 -44.5 51.5t-14.5 83.5v653h170v-666q-1 -60 8.5 -76t38.5 -10v-5
q-72 -72 -158 -31zM302 1000h170v-835q0 -72 -59.5 -118.5t-151.5 -46.5v1q8 2 14.5 6t10.5 10t7 12.5t5 16.5t3 18t1.5 22t0 24t-0.5 27v28v835zM43 160v5v-5zM213 165v-5v5zM213 160v-27v-26v-23t1 -21.5t3 -17.5t5 -16t7.5 -12.5t10.5 -10t14 -5.5v-1q-90 0 -149.5 45
t-61.5 115h170z" />
    <glyph glyph-name="ycircumflex" unicode="&#x177;" 
d="M106 1034q30 14 43 53q19 56 30 115h151q11 -59 30 -115q13 -39 43 -53q-24 0 -48.5 10.5t-38.5 21t-36 29.5l-28 24q-7 -5 -27 -23.5t-34 -29.5t-37.5 -21.5t-47.5 -10.5zM215 1000v-859q-1 -60 8.5 -76t38.5 -10v-5q-72 -72 -158 -31q-28 13 -44.5 51.5t-14.5 83.5v846
h170zM462 1000v-939q0 -72 -59.5 -118.5t-151.5 -46.5v1q8 2 14.5 6t10.5 10t7 12.5t5 16.5t3 18t1.5 22t0 24t-0.5 27v28v939h170z" />
    <glyph glyph-name="Ydieresis" unicode="&#x178;" 
d="M375 1068q-31 0 -54 25t-23 59t22.5 57.5t54.5 23.5t54.5 -23.5t22.5 -57.5t-23 -59t-54 -25zM143 1067q-31 0 -54 24.5t-23 57.5q0 34 22.5 58.5t54.5 24.5t55 -24.5t23 -58.5q0 -33 -23.5 -57.5t-54.5 -24.5zM106 212q-28 13 -44.5 51.5t-14.5 83.5v653h170v-666
q-1 -60 8.5 -76t38.5 -10v-5q-72 -72 -158 -31zM302 1000h170v-835q0 -72 -59.5 -118.5t-151.5 -46.5v1q8 2 14.5 6t10.5 10t7 12.5t5 16.5t3 18t1.5 22t0 24t-0.5 27v28v835zM43 160v5v-5zM213 165v-5v5zM213 160v-27v-26v-23t1 -21.5t3 -17.5t5 -16t7.5 -12.5t10.5 -10
t14 -5.5v-1q-90 0 -149.5 45t-61.5 115h170z" />
    <glyph glyph-name="uni0237" unicode="&#x237;" horiz-adv-x="285" 
d="M238 1000v-876q2 -44 -14 -79t-45 -49q-86 -41 -158 31v5q29 -6 38.5 12.5t8.5 79.5v876h170z" />
    <glyph glyph-name="circumflex" unicode="&#x2c6;" 
 />
    <glyph glyph-name="caron" unicode="&#x2c7;" 
d="M171 1182q24 0 47.5 -10.5t37.5 -21.5t34 -29.5t27 -23.5l28 24t36 29.5t38.5 21t48.5 10.5q-30 -14 -43 -53q-19 -56 -30 -115h-151q-11 59 -30 115q-13 39 -43 53z" />
    <glyph glyph-name="breve" unicode="&#x2d8;" 
 />
    <glyph glyph-name="dotaccent" unicode="&#x2d9;" 
 />
    <glyph glyph-name="ring" unicode="&#x2da;" 
 />
    <glyph glyph-name="ogonek" unicode="&#x2db;" 
 />
    <glyph glyph-name="tilde" unicode="&#x2dc;" 
 />
    <glyph glyph-name="hungarumlaut" unicode="&#x2dd;" 
 />
    <glyph glyph-name="gravecomb" unicode="&#x300;" horiz-adv-x="0" 
d="M-489 1213h149q10 -57 30 -114q13 -39 43 -53q-87 0 -135 32t-76 97z" />
    <glyph glyph-name="acutecomb" unicode="&#x301;" horiz-adv-x="0" 
d="M-187 1212l-11 -38q-28 -65 -76 -97t-135 -32q30 14 43 53q20 57 30 114h149z" />
    <glyph glyph-name="uni0302" unicode="&#x302;" horiz-adv-x="0" 
d="M-413 1034q30 14 43 53q19 56 30 115h151q11 -59 30 -115q13 -39 43 -53q-24 0 -48.5 10.5t-38.5 21t-36 29.5l-28 24q-7 -5 -27 -23.5t-34 -29.5t-37.5 -21.5t-47.5 -10.5z" />
    <glyph glyph-name="tildecomb" unicode="&#x303;" horiz-adv-x="0" 
d="M-107 1146l-28 -24q-38 -24 -72 -32.5t-75.5 0.5t-88.5 40q43 -6 72 17q50 38 84 75zM-583 1139l28 24q38 24 72 32.5t75.5 -0.5t88.5 -40q-42 8 -71 -15q-48 -37 -84 -76z" />
    <glyph glyph-name="uni0307" unicode="&#x307;" horiz-adv-x="0" 
d="M-317 1227q32 0 55 -23t23 -55q0 -31 -23.5 -54t-54.5 -23t-54 23t-23 54q0 32 22.5 55t54.5 23z" />
    <glyph glyph-name="uni0308" unicode="&#x308;" horiz-adv-x="0" 
d="M-215 1233q32 0 54.5 -23.5t22.5 -57.5t-23 -59t-54 -25t-54 25t-23 59t22.5 57.5t54.5 23.5zM-447 1232q32 0 55 -24.5t23 -58.5q0 -33 -23.5 -57.5t-54.5 -24.5t-54 24.5t-23 57.5q0 34 22.5 58.5t54.5 24.5z" />
    <glyph glyph-name="uni030A" unicode="&#x30a;" horiz-adv-x="0" 
d="M-316 1060q-37 0 -63.5 27t-26.5 63q0 37 26.5 64t63.5 27t64 -27t27 -64q0 -36 -27 -63t-64 -27zM-316 1111q17 0 29.5 12t12.5 29t-12.5 29t-29.5 12t-29 -12t-12 -29t12 -29t29 -12z" />
    <glyph glyph-name="uni0327" unicode="&#x327;" horiz-adv-x="0" 
d="M-405 -42h149q0 -62 -53.5 -106.5t-131.5 -44.5v1q22 6 29 39.5t7 110.5z" />
    <glyph glyph-name="uni0335" unicode="&#x335;" horiz-adv-x="0" 
 />
    <glyph glyph-name="uni0338" unicode="&#x338;" horiz-adv-x="0" 
 />
    <glyph glyph-name="Wgrave" unicode="&#x1e80;" horiz-adv-x="794" 
d="M272 1213h149q11 -57 30 -114q13 -39 43 -53q-87 0 -135 32t-76 97zM212 1000v-841v-28t-0.5 -27t0 -24t1.5 -22t3 -18t5 -16.5t7 -12.5t10.5 -10t14.5 -6v-1q-92 0 -151.5 46.5t-59.5 118.5v841h170zM276 -6v1q10 3 17 8t11.5 15.5t7 18.5t3 25.5t1 27.5t0 33.5
t-0.5 35.5v841h164v-841q0 -12 -0.5 -35.5t0 -33.5t1 -27.5t3 -25.5t7 -18.5t11.5 -15.5t17 -8v-1q-70 0 -121 40q-51 -40 -121 -40zM751 1000l1 -841q0 -72 -59.5 -118.5t-151.5 -46.5v1q8 2 14.5 6t10.5 10t7 12.5t5 16.5t3 18t1.5 22t0 24t-0.5 27v28v841h169z" />
    <glyph glyph-name="wgrave" unicode="&#x1e81;" horiz-adv-x="794" 
d="M279 1213h149q10 -57 30 -114q13 -39 43 -53q-87 0 -135 32t-76 97zM212 1000v-841v-28t-0.5 -27t0 -24t1.5 -22t3 -18t5 -16.5t7 -12.5t10.5 -10t14.5 -6v-1q-92 0 -151.5 46.5t-59.5 118.5v841h170zM276 -6v1q10 3 17 8t11.5 15.5t7 18.5t3 25.5t1 27.5t0 33.5
t-0.5 35.5v841h164v-841q0 -12 -0.5 -35.5t0 -33.5t1 -27.5t3 -25.5t7 -18.5t11.5 -15.5t17 -8v-1q-70 0 -121 40q-51 -40 -121 -40zM751 1000l1 -841q0 -72 -59.5 -118.5t-151.5 -46.5v1q8 2 14.5 6t10.5 10t7 12.5t5 16.5t3 18t1.5 22t0 24t-0.5 27v28v841h169z" />
    <glyph glyph-name="Wacute" unicode="&#x1e82;" horiz-adv-x="794" 
d="M512 1212l-11 -38q-28 -65 -76 -97t-135 -32q30 14 43 53q19 57 30 114h149zM212 1000v-841v-28t-0.5 -27t0 -24t1.5 -22t3 -18t5 -16.5t7 -12.5t10.5 -10t14.5 -6v-1q-92 0 -151.5 46.5t-59.5 118.5v841h170zM276 -6v1q10 3 17 8t11.5 15.5t7 18.5t3 25.5t1 27.5t0 33.5
t-0.5 35.5v841h164v-841q0 -12 -0.5 -35.5t0 -33.5t1 -27.5t3 -25.5t7 -18.5t11.5 -15.5t17 -8v-1q-70 0 -121 40q-51 -40 -121 -40zM751 1000l1 -841q0 -72 -59.5 -118.5t-151.5 -46.5v1q8 2 14.5 6t10.5 10t7 12.5t5 16.5t3 18t1.5 22t0 24t-0.5 27v28v841h169z" />
    <glyph glyph-name="wacute" unicode="&#x1e83;" horiz-adv-x="794" 
d="M507 1212l-11 -38q-28 -65 -76 -97t-135 -32q30 14 43 53q20 57 30 114h149zM212 1000v-841v-28t-0.5 -27t0 -24t1.5 -22t3 -18t5 -16.5t7 -12.5t10.5 -10t14.5 -6v-1q-92 0 -151.5 46.5t-59.5 118.5v841h170zM276 -6v1q10 3 17 8t11.5 15.5t7 18.5t3 25.5t1 27.5t0 33.5
t-0.5 35.5v841h164v-841q0 -12 -0.5 -35.5t0 -33.5t1 -27.5t3 -25.5t7 -18.5t11.5 -15.5t17 -8v-1q-70 0 -121 40q-51 -40 -121 -40zM751 1000l1 -841q0 -72 -59.5 -118.5t-151.5 -46.5v1q8 2 14.5 6t10.5 10t7 12.5t5 16.5t3 18t1.5 22t0 24t-0.5 27v28v841h169z" />
    <glyph glyph-name="Wdieresis" unicode="&#x1e84;" horiz-adv-x="794" 
d="M505 1233q32 0 54.5 -23.5t22.5 -57.5t-23 -59t-54 -25t-54 25t-23 59t22.5 57.5t54.5 23.5zM273 1232q32 0 55 -24.5t23 -58.5q0 -33 -23.5 -57.5t-54.5 -24.5t-54 24.5t-23 57.5q0 34 22.5 58.5t54.5 24.5zM212 1000v-841v-28t-0.5 -27t0 -24t1.5 -22t3 -18t5 -16.5
t7 -12.5t10.5 -10t14.5 -6v-1q-92 0 -151.5 46.5t-59.5 118.5v841h170zM276 -6v1q10 3 17 8t11.5 15.5t7 18.5t3 25.5t1 27.5t0 33.5t-0.5 35.5v841h164v-841q0 -12 -0.5 -35.5t0 -33.5t1 -27.5t3 -25.5t7 -18.5t11.5 -15.5t17 -8v-1q-70 0 -121 40q-51 -40 -121 -40z
M751 1000l1 -841q0 -72 -59.5 -118.5t-151.5 -46.5v1q8 2 14.5 6t10.5 10t7 12.5t5 16.5t3 18t1.5 22t0 24t-0.5 27v28v841h169z" />
    <glyph glyph-name="wdieresis" unicode="&#x1e85;" horiz-adv-x="794" 
d="M511 1233q32 0 54.5 -23.5t22.5 -57.5t-23 -59t-54 -25t-54 25t-23 59t22.5 57.5t54.5 23.5zM279 1232q32 0 55 -24.5t23 -58.5q0 -33 -23.5 -57.5t-54.5 -24.5t-54 24.5t-23 57.5q0 34 22.5 58.5t54.5 24.5zM212 1000v-841v-28t-0.5 -27t0 -24t1.5 -22t3 -18t5 -16.5
t7 -12.5t10.5 -10t14.5 -6v-1q-92 0 -151.5 46.5t-59.5 118.5v841h170zM276 -6v1q10 3 17 8t11.5 15.5t7 18.5t3 25.5t1 27.5t0 33.5t-0.5 35.5v841h164v-841q0 -12 -0.5 -35.5t0 -33.5t1 -27.5t3 -25.5t7 -18.5t11.5 -15.5t17 -8v-1q-70 0 -121 40q-51 -40 -121 -40z
M751 1000l1 -841q0 -72 -59.5 -118.5t-151.5 -46.5v1q8 2 14.5 6t10.5 10t7 12.5t5 16.5t3 18t1.5 22t0 24t-0.5 27v28v841h169z" />
    <glyph glyph-name="uni1E9E" unicode="&#x1e9e;" horiz-adv-x="522" 
d="M485 859v-216q0 -72 -59.5 -118.5t-151.5 -46.5v1q8 2 14.5 6t10.5 10t7 12.5t5 16.5t3 18t1.5 22t0 24t-0.5 27v28v229q1 60 -8.5 76t-38.5 10v5q72 72 158 31q28 -13 44.5 -51.5t14.5 -83.5zM50 -101v925q0 72 59.5 118.5t151.5 46.5v-1q-8 -2 -14.5 -6t-10.5 -10
t-7 -12.5t-5 -16.5t-3 -18t-1.5 -22t0 -24t0.5 -27v-28v-925h-170zM485 301v-136q0 -72 -59.5 -118.5t-151.5 -46.5v1q8 2 14.5 6t10.5 10t7 12.5t5 16.5t3 18t1.5 22t0 24t-0.5 27v28v136v28t0.5 27t0 24t-1.5 22t-3 18t-5 16.5t-7 12.5t-10.5 10t-14.5 6v1
q92 0 151.5 -46.5t59.5 -118.5z" />
    <glyph glyph-name="Ygrave" unicode="&#x1ef2;" 
d="M354 1046q-87 0 -135 32t-76 97l-11 38h149q11 -57 30 -114q13 -39 43 -53zM106 212q-28 13 -44.5 51.5t-14.5 83.5v653h170v-666q-1 -60 8.5 -76t38.5 -10v-5q-72 -72 -158 -31zM302 1000h170v-835q0 -72 -59.5 -118.5t-151.5 -46.5v1q8 2 14.5 6t10.5 10t7 12.5t5 16.5
t3 18t1.5 22t0 24t-0.5 27v28v835zM43 160v5v-5zM213 165v-5v5zM213 160v-27v-26v-23t1 -21.5t3 -17.5t5 -16t7.5 -12.5t10.5 -10t14 -5.5v-1q-90 0 -149.5 45t-61.5 115h170z" />
    <glyph glyph-name="ygrave" unicode="&#x1ef3;" 
d="M122 1213h149q11 -57 30 -114q13 -39 43 -53q-87 0 -135 32t-76 97zM215 1000v-859q-1 -60 8.5 -76t38.5 -10v-5q-72 -72 -158 -31q-28 13 -44.5 51.5t-14.5 83.5v846h170zM462 1000v-939q0 -72 -59.5 -118.5t-151.5 -46.5v1q8 2 14.5 6t10.5 10t7 12.5t5 16.5t3 18
t1.5 22t0 24t-0.5 27v28v939h170z" />
    <glyph glyph-name="endash" unicode="&#x2013;" horiz-adv-x="497" 
d="M50 408v130h397v-130h-397z" />
    <glyph glyph-name="emdash" unicode="&#x2014;" horiz-adv-x="901" 
d="M50 426v100h801v-100h-801z" />
    <glyph glyph-name="quoteleft" unicode="&#x2018;" horiz-adv-x="286" 
d="M236 1007v-1q-19 -8 -29 -38.5t-10 -55.5v-92h-147q0 80 52 132t134 55z" />
    <glyph glyph-name="quoteright" unicode="&#x2019;" horiz-adv-x="287" 
d="M46 814v1q19 8 29 38.5t10 55.5v92h147q0 -80 -52 -132t-134 -55z" />
    <glyph glyph-name="quotesinglbase" unicode="&#x201a;" horiz-adv-x="283" 
d="M40 -7v1q19 8 29 38.5t10 55.5v92h147q0 -80 -52 -132t-134 -55z" />
    <glyph glyph-name="quotedblleft" unicode="&#x201c;" horiz-adv-x="509" 
d="M246 1012v-1q-19 -8 -29 -38.5t-10 -55.5v-92h-147q0 80 52 132t134 55zM449 1012v-1q-19 -8 -29 -38.5t-10 -55.5v-92h-147q0 80 52 132t134 55z" />
    <glyph glyph-name="quotedblright" unicode="&#x201d;" horiz-adv-x="509" 
d="M60 813v1q19 8 29 38.5t10 55.5v92h147q0 -80 -52 -132t-134 -55zM263 813v1q19 8 29 38.5t10 55.5v92h147q0 -80 -52 -132t-134 -55z" />
    <glyph glyph-name="quotedblbase" unicode="&#x201e;" horiz-adv-x="291" 
d="M89 180h147q0 -80 -52 -132t-134 -55v1q19 8 29 38.5t10 55.5v92z" />
    <glyph glyph-name="bullet" unicode="&#x2022;" horiz-adv-x="304" 
d="M152 362q-41 0 -71.5 30.5t-30.5 71.5t30.5 71.5t71.5 30.5t71.5 -30.5t30.5 -71.5t-30.5 -71.5t-71.5 -30.5z" />
    <glyph glyph-name="ellipsis" unicode="&#x2026;" horiz-adv-x="681" 
d="M128 -3q-32 0 -55 23t-23 54t23 54t55 23q31 0 54 -23t23 -54t-23 -54t-54 -23zM340 -3q-32 0 -55 23t-23 54t23 54t55 23q31 0 54 -23t23 -54t-23 -54t-54 -23zM554 -3q-32 0 -55 23t-23 54t23 54t55 23q31 0 54 -23t23 -54t-23 -54t-54 -23z" />
    <glyph glyph-name="guilsinglleft" unicode="&#x2039;" horiz-adv-x="760" 
 />
    <glyph glyph-name="guilsinglright" unicode="&#x203a;" horiz-adv-x="760" 
 />
    <glyph glyph-name="Euro" unicode="&#x20ac;" horiz-adv-x="680" 
 />
    <glyph glyph-name="S.ss01" horiz-adv-x="503" 
d="M204 840v-287q-1 -60 8.5 -76t38.5 -10v-5q-72 -72 -158 -31q-28 13 -44.5 51.5t-14.5 83.5v274q0 72 59.5 118.5t151.5 46.5v-1q-8 -2 -14.5 -6t-10.5 -10t-7 -12.5t-5 -16.5t-3 -18t-1.5 -22t0 -24t0.5 -27v-28zM298 720v120v28t0.5 27t0 24t-1.5 22t-3 18t-5 16.5
t-7 12.5t-10.5 10t-14.5 6v1q92 0 151.5 -46.5t59.5 -118.5v-120h-170zM468 393v-232q0 -72 -59.5 -118.5t-151.5 -46.5v1q8 2 14.5 6t10.5 10t7 12.5t5 16.5t3 18t1.5 22t0 24t-0.5 27v28v245q1 60 -8.5 76t-38.5 10v5q72 72 158 31q28 -13 44.5 -51.5t14.5 -83.5zM204 280
v-119v-28t-0.5 -27t0 -24t1.5 -22t3 -18t5 -16.5t7 -12.5t10.5 -10t14.5 -6v-1q-92 0 -151.5 46.5t-59.5 118.5v119h170z" />
    <glyph glyph-name="a.ss01" horiz-adv-x="524" 
d="M44 720v115q0 72 59.5 118.5t151.5 46.5v-1q-8 -2 -14.5 -6t-10.5 -10t-7 -12.5t-5 -16.5t-3 -18t-1.5 -22t0 -24t0.5 -27v-28v-115h-170zM308 0v835v28t0.5 27t0 24t-1.5 22t-3 18t-5 16.5t-7 12.5t-10.5 10t-14.5 6v1q92 0 151.5 -46.5t59.5 -118.5v-835h-170zM215 466
v-334q-1 -60 8.5 -76t38.5 -10v-5q-72 -72 -158 -31q-28 13 -44.5 51.5t-14.5 83.5v321q-2 44 14 79t45 49q86 41 158 -31v-5q-29 6 -38.5 -12.5t-8.5 -79.5z" />
    <glyph glyph-name="f.ss01" horiz-adv-x="551" 
d="M248 841v-316h231v-120h-231v-406h-170v406h-38v120h38v316q0 72 59.5 118.5t151.5 46.5v-1q-8 -2 -14.5 -6t-10.5 -10t-7 -12.5t-5 -16.5t-3 -18t-1.5 -22t0 -24t0.5 -27v-28zM300 1006q92 0 151.5 -46.5t59.5 -118.5v-73h-170v73v28t0.5 27t0 24t-1.5 22t-3 18t-5 16.5
t-7 12.5t-10.5 10t-14.5 6v1z" />
    <glyph glyph-name="j.ss01" horiz-adv-x="520" 
d="M480 1000v-835q0 -72 -59.5 -118.5t-151.5 -46.5v1q8 2 14.5 6t10.5 10t7 12.5t5 16.5t3 18t1.5 22t0 24t-0.5 27v28v835h170zM209 335l1 -170v-28t-0.5 -27t0 -24t1.5 -22t3 -18t5 -16.5t7 -12.5t10.5 -10t14.5 -6v-1q-92 0 -151.5 46.5t-59.5 118.5v170h169z" />
    <glyph glyph-name="s.ss01" horiz-adv-x="503" 
d="M204 840v-287q-1 -60 8.5 -76t38.5 -10v-5q-72 -72 -158 -31q-28 13 -44.5 51.5t-14.5 83.5v274q0 72 59.5 118.5t151.5 46.5v-1q-8 -2 -14.5 -6t-10.5 -10t-7 -12.5t-5 -16.5t-3 -18t-1.5 -22t0 -24t0.5 -27v-28zM298 720v120v28t0.5 27t0 24t-1.5 22t-3 18t-5 16.5
t-7 12.5t-10.5 10t-14.5 6v1q92 0 151.5 -46.5t59.5 -118.5v-120h-170zM468 393v-232q0 -72 -59.5 -118.5t-151.5 -46.5v1q8 2 14.5 6t10.5 10t7 12.5t5 16.5t3 18t1.5 22t0 24t-0.5 27v28v245q1 60 -8.5 76t-38.5 10v5q72 72 158 31q28 -13 44.5 -51.5t14.5 -83.5zM204 280
v-119v-28t-0.5 -27t0 -24t1.5 -22t3 -18t5 -16.5t7 -12.5t10.5 -10t14.5 -6v-1q-92 0 -151.5 46.5t-59.5 118.5v119h170z" />
    <glyph glyph-name="t.ss01" horiz-adv-x="551" 
d="M249 165v-28t-0.5 -27t0 -24t1.5 -22t3 -18t5 -16.5t7 -12.5t10.5 -10t14.5 -6v-1q-92 0 -151.5 46.5t-59.5 118.5v570h-39v120h39v145h170v-145h234v-120h-234v-570zM341 226h170v-61q0 -72 -59.5 -118.5t-151.5 -46.5v1q8 2 14.5 6t10.5 10t7 12.5t5 16.5t3 18t1.5 22
t0 24t-0.5 27v28v61z" />
    </font>
</defs>
</svg>
