<?xml version="1.0" encoding="utf-8"?>
<!-- Generator: Adobe Illustrator 20.1.0, SVG Export Plug-In . SVG Version: 6.00 Build 0)  -->
<svg version="1.1" id="Layer_1" xmlns="http://www.w3.org/2000/svg" xmlns:xlink="http://www.w3.org/1999/xlink" x="0px" y="0px"
	 viewBox="0 0 809 316" style="enable-background:new 0 0 809 316;" xml:space="preserve">
<style type="text/css">
	.st0{enable-background:new    ;}
	.st1{fill:#FFFFFF;}
	.st2{opacity:0.2879;fill:#565656;enable-background:new    ;}
	.st3{fill:none;stroke:#FFFFFF;stroke-linecap:square;}
	.st4{font-family:'RobotoCondensed-Regular';}
	.st5{font-size:18px;}
</style>
<title>Group 3</title>
<desc>Created with Sketch.</desc>
<g class="st0">
	<path class="st1" d="M38,231V91h23.8v140H38z M97.8,186.8c0.4,8.3-2.9,15.4-8.3,17.9c-11.3,5.3-19.6-1.8-22.1-4.3v-0.7
		c5.3,1.1,6.7-1.4,6.6-12.9v-78.4c0.1-11.5-1.3-13.2-6.6-12v-0.7c2.5-2.5,10.8-9.7,22.1-4.3c5.3,2.5,8.5,10.6,8.3,18.9V186.8z"/>
	<path class="st1" d="M110.1,231.4V77h23.8v154.4H110.1z M145.4,231.1V109.3c0.1-11.5-1.3-13.2-6.6-12v-0.7
		c2.5-2.5,10.8-9.7,22.1-4.3c5.3,2.5,8.5,10.6,8.3,18.9v120H145.4z"/>
	<path class="st1" d="M205.9,208.5c0,12.3-1.1,21.1,5.7,23v0.1c-17.1,0-29.5-9.7-29.5-23.1v-94.9c0-13.4,12.5-23.1,29.5-23.1v0.1
		c-6.9,1.8-5.7,10.6-5.7,23V208.5z M243.7,208.5c0,13.4-12.5,23.1-29.5,23.1v-0.1c6.9-1.8,5.7-10.6,5.7-23v-94.9
		c0-12.3,1.1-21.1-5.7-23v-0.1c17.1,0,29.5,9.7,29.5,23.1V208.5z"/>
	<path class="st1" d="M288.5,214.3c-0.1,11.5,1.3,13.2,6.7,12v0.7c-2.5,2.5-10.9,9.7-22.5,4.3c-5.5-2.5-8.7-10.6-8.4-15.3V107.8
		h-9.9V91h9.9V77h24.2v14h11.9v16.8h-11.9V214.3z"/>
	<path class="st1" d="M334.8,208.5c0,12.3-1.1,21.1,5.7,23v0.1c-17.1,0-29.5-9.7-29.5-23.1v-94.9c0-13.4,12.5-23.1,29.5-23.1v0.1
		c-6.9,1.8-5.7,10.6-5.7,23V208.5z M372.6,208.5c0,13.4-12.5,23.1-29.5,23.1v-0.1c6.9-1.8,5.7-10.6,5.7-23v-94.9
		c0-12.3,1.1-21.1-5.7-23v-0.1c17.1,0,29.5,9.7,29.5,23.1V208.5z"/>
	<path class="st1" d="M384.9,109.6c-0.4-8.3,2.9-15.4,8.3-17.9c11.3-5.3,19.6,1.8,22.1,4.3v0.7c-5.3-1.1-6.7,1.4-6.6,12.9v103.2
		c-0.1,11.5,1.3,13.2,6.6,12v0.7c-2.5,2.5-10.8,9.7-22.1,4.3c-5.3-2.5-8.5-10.6-8.3-18.9V109.6z M446.5,226.7
		c0.4,8.3-2.9,15.4-8.3,17.9c-11.3,5.3-19.6-1.8-22.1-4.3v-0.7c5.3,1.1,6.7-1.4,6.6-12.9V91h23.8V226.7z"/>
	<path class="st1" d="M485.7,91v140.1h-25.2V91H485.7z M488.1,102.2c1.3-4.1,5.2-10.9,16.5-10.9c12.9,0,17.5,9.4,17.5,24.5v64h-23.8
		l-0.1-66.4C498.2,106.7,496.9,102.2,488.1,102.2z"/>
	<path class="st1" d="M532.6,110.3c-0.4-8.3,2.9-15.4,8.3-17.9c11.3-5.3,19.6,1.8,22.1,4.3v0.7c-5.3-1.1-6.7,1.4-6.6,12.9v102.6
		c-0.1,11.5,1.3,13.2,6.6,12v0.7c-2.5,2.5-10.8,9.7-22.1,4.3c-5.3-2.5-8.5-10.6-8.3-18.9V110.3z M591.8,91v140H568V91H591.8z"/>
	<path class="st1" d="M605.8,245V91h23.8v154H605.8z M665.6,212c0.4,8.3-2.9,15.4-8.3,17.9c-11.3,5.3-19.6-1.8-22.1-4.3v-0.7
		c5.3,1.1,6.7-1.4,6.6-12.9V108.4c0.1-11.5-1.3-13.2-6.6-12v-0.7c2.5-2.5,10.8-9.7,22.1-4.3c5.3,2.5,8.5,10.6,8.3,18.9V212z"/>
	<path class="st1" d="M678.5,231.4V77h23.8v154.4H678.5z M713.8,231.1V109.3c0.1-11.5-1.3-13.2-6.6-12v-0.7
		c2.5-2.5,10.8-9.7,22.1-4.3c5.3,2.5,8.5,10.6,8.3,18.9v120H713.8z"/>
	<path class="st1" d="M774.1,211.3c-0.1,11.5,1.3,13.2,6.6,12v0.7c-2.5,2.5-10.8,9.7-22.1,4.3c-5.3-2.5-8.5-10.6-8.3-18.9V91h23.8
		V211.3z M808.7,222.5c0,13.4-12.5,23.1-29.5,23.1v-0.1c6.9-1.8,5.7-10.6,5.7-23V91h23.8V222.5z"/>
</g>
<circle id="Oval" class="st2" cx="212.5" cy="90.5" r="26.5"/>
<circle id="Oval-2" class="st1" cx="212.5" cy="90.5" r="4.5"/>
<path id="Line-4" class="st3" d="M213.5,89.5v-50"/>
<path id="Line-5" class="st3" d="M214.5,39.5H342"/>
<text transform="matrix(1 0 0 1 214 29)" class="st1 st4 st5">Stencil-like breaks</text>
<circle id="Oval_1_" class="st2" cx="693.5" cy="77.5" r="26.5"/>
<circle id="Oval-2_1_" class="st1" cx="693.5" cy="77.5" r="4.5"/>
<path id="Line-4_1_" class="st3" d="M694.5,76.5v-50"/>
<path id="Line-5_1_" class="st3" d="M448,26.5h245.5"/>
<text transform="matrix(1 0 0 1 447.0208 16)" class="st1 st4 st5">Extremely low ascender/descender</text>
<path id="Line-5_2_" class="st3" d="M432.5,315.5h163.4"/>
<circle id="Oval_2_" class="st2" cx="432.5" cy="240.5" r="26.5"/>
<circle id="Oval-2_2_" class="st1" cx="432.5" cy="240.5" r="4.5"/>
<path id="Line-4_2_" class="st3" d="M432.5,315.5v-74"/>
<text transform="matrix(1 0 0 1 444 305)" class="st1 st4 st5">Nicely curved strokes</text>
<circle id="Oval_3_" class="st2" cx="49.5" cy="160.5" r="26.5"/>
<circle id="Oval-2_3_" class="st1" cx="49.5" cy="160.5" r="4.5"/>
<path id="Line-4_3_" class="st3" d="M0.5,311.5v-151"/>
<path id="Line-6" class="st3" d="M1.5,160.5h46"/>
<path id="Line-5_3_" class="st3" d="M0.5,311.5h250.7"/>
<text transform="matrix(1 0 0 1 12 301)" class="st1 st4 st5">Bold, Condensed, High-contrasted</text>
</svg>
