<?xml version="1.0" encoding="utf-8"?>
<!-- Generator: Adobe Illustrator 20.1.0, SVG Export Plug-In . SVG Version: 6.00 Build 0)  -->
<svg version="1.1" xmlns="http://www.w3.org/2000/svg" xmlns:xlink="http://www.w3.org/1999/xlink" x="0px" y="0px"
	 viewBox="0 0 808.2 317" style="enable-background:new 0 0 808.2 317;" xml:space="preserve">
<style type="text/css">
	.st0{enable-background:new    ;}
	.st1{fill:#FFFFFF;}
	.st2{opacity:0.2879;fill:#565656;enable-background:new    ;}
	.st3{fill:none;stroke:#FFFFFF;stroke-linecap:square;}
	.st4{font-family:'RobotoCondensed-Bold';}
	.st5{font-size:18px;}
</style>
<g id="text">
	<title>Group 3</title>
	<desc>Created with Sketch.</desc>
	<g class="st0">
		<path class="st1" d="M37.5,232.5v-140h23.8v140H37.5z M97.3,188.2c0.4,8.3-2.9,15.4-8.3,17.9c-11.3,5.3-19.6-1.8-22.1-4.3v-0.7
			c5.3,1.1,6.7-1.4,6.6-12.9v-78.4c0.1-11.5-1.3-13.2-6.6-12v-0.7c2.5-2.5,10.8-9.7,22.1-4.3c5.3,2.5,8.5,10.6,8.3,18.9V188.2z"/>
		<path class="st1" d="M109.6,232.9V78.5h23.8v154.4H109.6z M144.9,232.6V110.8c0.1-11.5-1.3-13.2-6.6-12v-0.7
			c2.5-2.5,10.8-9.7,22.1-4.3c5.3,2.5,8.5,10.6,8.3,18.9v120H144.9z"/>
		<path class="st1" d="M205.4,209.9c0,12.3-1.1,21.1,5.7,23v0.1c-17.1,0-29.5-9.7-29.5-23.1V115c0-13.4,12.5-23.1,29.5-23.1V92
			c-6.9,1.8-5.7,10.6-5.7,23V209.9z M243.2,209.9c0,13.4-12.5,23.1-29.5,23.1v-0.1c6.9-1.8,5.7-10.6,5.7-23V115
			c0-12.3,1.1-21.1-5.7-23v-0.1c17.1,0,29.5,9.7,29.5,23.1V209.9z"/>
		<path class="st1" d="M288,215.8c-0.1,11.5,1.3,13.2,6.7,12v0.7c-2.5,2.5-10.9,9.7-22.5,4.3c-5.5-2.5-8.7-10.6-8.4-15.3V109.3h-9.9
			V92.5h9.9v-14H288v14h11.9v16.8H288V215.8z"/>
		<path class="st1" d="M334.3,209.9c0,12.3-1.1,21.1,5.7,23v0.1c-17.1,0-29.5-9.7-29.5-23.1V115c0-13.4,12.5-23.1,29.5-23.1V92
			c-6.9,1.8-5.7,10.6-5.7,23V209.9z M372.1,209.9c0,13.4-12.5,23.1-29.5,23.1v-0.1c6.9-1.8,5.7-10.6,5.7-23V115
			c0-12.3,1.1-21.1-5.7-23v-0.1c17.1,0,29.5,9.7,29.5,23.1V209.9z"/>
		<path class="st1" d="M384.4,111.1c-0.4-8.3,2.9-15.4,8.3-17.9c11.3-5.3,19.6,1.8,22.1,4.3v0.7c-5.3-1.1-6.7,1.4-6.6,12.9v103.2
			c-0.1,11.5,1.3,13.2,6.6,12v0.7c-2.5,2.5-10.8,9.7-22.1,4.3c-5.3-2.5-8.5-10.6-8.3-18.9V111.1z M446,228.1
			c0.4,8.3-2.9,15.4-8.3,17.9c-11.3,5.3-19.6-1.8-22.1-4.3V241c5.3,1.1,6.7-1.4,6.6-12.9V92.5H446V228.1z"/>
		<path class="st1" d="M485.2,92.5v140.1H460V92.5H485.2z M487.6,103.7c1.3-4.1,5.2-10.9,16.5-10.9c12.9,0,17.5,9.4,17.5,24.5v64
			h-23.8l-0.1-66.4C497.7,108.1,496.4,103.7,487.6,103.7z"/>
		<path class="st1" d="M532.1,111.8c-0.4-8.3,2.9-15.4,8.3-17.9c11.3-5.3,19.6,1.8,22.1,4.3v0.7c-5.3-1.1-6.7,1.4-6.6,12.9v102.6
			c-0.1,11.5,1.3,13.2,6.6,12v0.7c-2.5,2.5-10.8,9.7-22.1,4.3c-5.3-2.5-8.5-10.6-8.3-18.9V111.8z M591.3,92.5v140h-23.8v-140H591.3z
			"/>
		<path class="st1" d="M605.3,246.5v-154h23.8v154H605.3z M665.1,213.4c0.4,8.3-2.9,15.4-8.3,17.9c-11.3,5.3-19.6-1.8-22.1-4.3v-0.7
			c5.3,1.1,6.7-1.4,6.6-12.9V109.8c0.1-11.5-1.3-13.2-6.6-12v-0.7c2.5-2.5,10.8-9.7,22.1-4.3c5.3,2.5,8.5,10.6,8.3,18.9V213.4z"/>
		<path class="st1" d="M678,232.9V78.5h23.8v154.4H678z M713.3,232.6V110.8c0.1-11.5-1.3-13.2-6.6-12v-0.7
			c2.5-2.5,10.8-9.7,22.1-4.3c5.3,2.5,8.5,10.6,8.3,18.9v120H713.3z"/>
		<path class="st1" d="M773.6,212.7c-0.1,11.5,1.3,13.2,6.6,12v0.7c-2.5,2.5-10.8,9.7-22.1,4.3c-5.3-2.5-8.5-10.6-8.3-18.9V92.5
			h23.8V212.7z M808.2,223.9c0,13.4-12.5,23.1-29.5,23.1v-0.1c6.9-1.8,5.7-10.6,5.7-23V92.5h23.8V223.9z"/>
	</g>
</g>
<g id="down">
	<circle id="Oval_2_" class="st2" cx="432" cy="242" r="26.5"/>
	<circle id="Oval-2_2_" class="st1" cx="432" cy="242" r="3.3"/>
	<path id="Line-4_2_" class="st3" d="M432,317v-74"/>
	<path id="Line-5_2_" class="st3" d="M432,317h171.6"/>
	<text transform="matrix(1 0 0 1 446.332 306.8253)" class="st1 st4 st5">Nicely curved strokes</text>
</g>
<g id="left">
	<circle id="Oval_3_" class="st2" cx="49" cy="162" r="26.5"/>
	<circle id="Oval-2_3_" class="st1" cx="49" cy="162" r="3.2"/>
	<path id="Line-4_3_" class="st3" d="M0,313v-151"/>
	<path id="Line-6" class="st3" d="M1,162h46"/>
	<path id="Line-5_3_" class="st3" d="M0,313h254.4"/>
	<text transform="matrix(1 0 0 1 24.5008 303.0763)" class="st1 st4 st5">Bold, Condensed, High-contrast</text>
</g>
<g id="upleft">
	<circle id="Oval" class="st2" cx="212" cy="92" r="26.5"/>
	<circle id="Oval-2" class="st1" cx="213" cy="92" r="3.4"/>
	<path id="Line-4" class="st3" d="M213,91v-50"/>
	<path id="Line-5" class="st3" d="M214,40.9h133.9"/>
	<text transform="matrix(1 0 0 1 213.7962 32.1822)" class="st1 st4 st5">Stencil-like breaks</text>
</g>
<g id="upright">
	<circle id="Oval_1_" class="st2" cx="689" cy="79" r="26.5"/>
	<circle id="Oval-2_1_" class="st1" cx="690" cy="79" r="3.5"/>
	<path id="Line-4_1_" class="st3" d="M690,78v-50"/>
	<path id="Line-5_1_" class="st3" d="M438.7,28H690"/>
	<text transform="matrix(1 0 0 1 437.9645 13.3883)" class="st1 st4 st5">Extremely low ascender/descender</text>
</g>
</svg>
