<?xml version="1.0" encoding="utf-8"?>
<!-- Generator: Adobe Illustrator 20.1.0, SVG Export Plug-In . SVG Version: 6.00 Build 0)  -->
<svg version="1.1" id="Layer_1" xmlns="http://www.w3.org/2000/svg" xmlns:xlink="http://www.w3.org/1999/xlink" x="0px" y="0px"
	 viewBox="0 0 809 316" style="enable-background:new 0 0 809 316;" xml:space="preserve">
<style type="text/css">
	.st0{fill:#FFFFFF;}
	.st1{font-family:'provoke2-Regular';}
	.st2{font-size:140px;}
	.st3{opacity:0.2879;fill:#565656;enable-background:new    ;}
	.st4{fill:none;stroke:#FFFFFF;stroke-linecap:square;}
	.st5{font-family:'RobotoCondensed-Regular';}
	.st6{font-size:20px;}
</style>
<title>Group 3</title>
<desc>Created with Sketch.</desc>
<text transform="matrix(1 0 0 1 31 231)" class="st0 st1 st2">Photography</text>
<g>
	<circle id="Oval" class="st3" cx="212.5" cy="90.5" r="26.5"/>
	<circle id="Oval-2" class="st0" cx="212.5" cy="90.5" r="4.5"/>
	<path id="Line-4" class="st4" d="M213.5,89.5v-50"/>
	<path id="Line-5" class="st4" d="M214.5,39.5h143.2"/>
	<text transform="matrix(1 0 0 1 214 29)" class="st0 st5 st6">Stencil-like breaks</text>
</g>
<g>
	<circle id="Oval_1_" class="st3" cx="693.5" cy="77.5" r="26.5"/>
	<circle id="Oval-2_1_" class="st0" cx="693.5" cy="77.5" r="4.5"/>
	<path id="Line-4_1_" class="st4" d="M694.5,76.5v-50"/>
	<path id="Line-5_1_" class="st4" d="M423.1,26.5h269.4"/>
	<text transform="matrix(1 0 0 1 419.0898 16)" class="st0 st5 st6">Extremely low ascender/descender</text>
</g>
<path id="Line-5_2_" class="st4" d="M432.5,315.5h182.3"/>
<g>
	<circle id="Oval_2_" class="st3" cx="432.5" cy="240.5" r="26.5"/>
	<circle id="Oval-2_2_" class="st0" cx="432.5" cy="240.5" r="4.5"/>
	<path id="Line-4_2_" class="st4" d="M432.5,315.5v-74"/>
	<text transform="matrix(1 0 0 1 444 305)" class="st0 st5 st6">Nicely curved strokes</text>
</g>
<g>
	<circle id="Oval_3_" class="st3" cx="49.5" cy="160.5" r="26.5"/>
	<circle id="Oval-2_3_" class="st0" cx="49.5" cy="160.5" r="4.5"/>
	<path id="Line-4_3_" class="st4" d="M0.5,311.5v-151"/>
	<path id="Line-6" class="st4" d="M1.5,160.5h46"/>
	<path id="Line-5_3_" class="st4" d="M0.5,311.5h277.9"/>
	<text transform="matrix(1 0 0 1 12 301)" class="st0 st5 st6">Bold, Condensed, High-contrasted</text>
</g>
</svg>
