<svg id="Layer_1" data-name="Layer 1" xmlns="http://www.w3.org/2000/svg" viewBox="0 0 808.7 315.4"><defs><style>.cls-1,.cls-3,.cls-5{isolation:isolate;}.cls-2,.cls-5{fill:#fff;}.cls-3{fill:#565656;opacity:0.29;}.cls-4{fill:none;stroke:#fff;stroke-linecap:square;}.cls-5{font-size:18px;font-family:RobotoCondensed-Regular, Roboto Condensed;}.cls-6{letter-spacing:-0.01em;}.cls-7{letter-spacing:-0.01em;}.cls-8{letter-spacing:0.01em;}.cls-9{letter-spacing:-0.01em;}.cls-10{letter-spacing:-0.02em;}</style></defs><title>feature</title><g id="Photography" class="cls-1"><g class="cls-1"><path class="cls-2" d="M38,231V91H61.8V231Zm59.78-44.24c.42,8.26-2.94,15.4-8.26,17.92-11.34,5.32-19.6-1.82-22.12-4.34v-.7c5.32,1.12,6.72-1.4,6.58-12.88v-78.4c.14-11.48-1.26-13.16-6.58-12v-.7C69.92,93.1,78.18,86,89.52,91.28c5.32,2.52,8.54,10.64,8.26,18.9Z" transform="translate(0 -0.6)"/><path class="cls-2" d="M110.1,231.42V77h23.8V231.42Zm35.28-.28V109.34c.14-11.48-1.26-13.16-6.58-12v-.7c2.52-2.52,10.78-9.66,22.12-4.34,5.32,2.52,8.54,10.64,8.26,18.9v120Z" transform="translate(0 -0.6)"/><path class="cls-2" d="M205.86,208.46c0,12.32-1.12,21.14,5.74,23v.14c-17.08,0-29.54-9.66-29.54-23.1V113.54c0-13.44,12.46-23.1,29.54-23.1v.14c-6.86,1.82-5.74,10.64-5.74,23Zm37.8,0c0,13.44-12.46,23.1-29.54,23.1v-.14c6.86-1.82,5.74-10.64,5.74-23V113.54c0-12.32,1.12-21.14-5.74-23v-.14c17.08,0,29.54,9.66,29.54,23.1Z" transform="translate(0 -0.6)"/><path class="cls-2" d="M288.46,214.34c-.14,11.48,1.26,13.16,6.72,12v.7c-2.52,2.52-10.92,9.66-22.54,4.34-5.46-2.52-8.68-10.64-8.4-15.26V107.8H254.3V91h9.94V77h24.22V91h11.9v16.8h-11.9Z" transform="translate(0 -0.6)"/><path class="cls-2" d="M334.8,208.46c0,12.32-1.12,21.14,5.74,23v.14c-17.08,0-29.54-9.66-29.54-23.1V113.54c0-13.44,12.46-23.1,29.54-23.1v.14c-6.86,1.82-5.74,10.64-5.74,23Zm37.8,0c0,13.44-12.46,23.1-29.54,23.1v-.14c6.86-1.82,5.74-10.64,5.74-23V113.54c0-12.32,1.12-21.14-5.74-23v-.14c17.08,0,29.54,9.66,29.54,23.1Z" transform="translate(0 -0.6)"/><path class="cls-2" d="M384.92,109.62c-.42-8.26,2.94-15.4,8.26-17.92,11.34-5.32,19.6,1.82,22.12,4.34v.7c-5.32-1.12-6.72,1.4-6.58,12.88V212.8c-.14,11.48,1.26,13.16,6.58,12v.7c-2.52,2.52-10.78,9.66-22.12,4.34-5.32-2.52-8.54-10.64-8.26-18.9Zm61.6,117c.42,8.26-2.94,15.4-8.26,17.92-11.34,5.32-19.6-1.82-22.12-4.34v-.7c5.32,1.12,6.72-1.4,6.58-12.88V91h23.8Z" transform="translate(0 -0.6)"/><path class="cls-2" d="M485.72,91V231.14h-25.2V91Zm2.38,11.2c1.26-4.06,5.18-10.92,16.52-10.92,12.88,0,17.5,9.38,17.5,24.5v64h-23.8l-.14-66.36C498.18,106.68,496.92,102.2,488.1,102.2Z" transform="translate(0 -0.6)"/><path class="cls-2" d="M532.62,110.32c-.42-8.26,2.94-15.4,8.26-17.92,11.34-5.32,19.6,1.82,22.12,4.34v.7c-5.32-1.12-6.72,1.4-6.58,12.88V212.94c-.14,11.48,1.26,13.16,6.58,12v.7c-2.52,2.52-10.78,9.66-22.12,4.34-5.32-2.52-8.54-10.64-8.26-18.9ZM591.84,91V231H568V91Z" transform="translate(0 -0.6)"/><path class="cls-2" d="M605.84,245V91h23.8V245Zm59.78-33c.42,8.26-2.94,15.4-8.26,17.92-11.34,5.32-19.6-1.82-22.12-4.34v-.7c5.32,1.12,6.72-1.4,6.58-12.88V108.36c.14-11.48-1.26-13.16-6.58-12v-.7C637.76,93.1,646,86,657.36,91.28c5.32,2.52,8.54,10.64,8.26,18.9Z" transform="translate(0 -0.6)"/><path class="cls-2" d="M678.5,231.42V77h23.8V231.42Zm35.28-.28V109.34c.14-11.48-1.26-13.16-6.58-12v-.7c2.52-2.52,10.78-9.66,22.12-4.34,5.32,2.52,8.54,10.64,8.26,18.9v120Z" transform="translate(0 -0.6)"/><path class="cls-2" d="M774.11,211.26c-.14,11.48,1.26,13.16,6.58,12v.7c-2.52,2.52-10.78,9.66-22.12,4.34-5.32-2.52-8.54-10.64-8.26-18.9V91h23.8Zm34.58,11.2c0,13.44-12.46,23.1-29.54,23.1v-.14c6.86-1.82,5.74-10.64,5.74-23V91h23.8Z" transform="translate(0 -0.6)"/></g></g><circle id="Oval" class="cls-3" cx="212.5" cy="89.9" r="26.5"/><circle id="Oval-2" class="cls-2" cx="212.5" cy="89.9" r="4.5"/><path id="Line-4" class="cls-4" d="M213.5,89.5v-50" transform="translate(0 -0.6)"/><path id="Line-5" class="cls-4" d="M214.5,39.5H342" transform="translate(0 -0.6)"/><g id="Stencil-like-breaks" class="cls-1"><text class="cls-5" transform="translate(214 28.4)">Stencil-li<tspan class="cls-6" x="61.05" y="0">k</tspan><tspan x="68.99" y="0">e b</tspan><tspan class="cls-7" x="90.41" y="0">r</tspan><tspan x="95.72" y="0">eaks</tspan></text></g><circle id="Oval-2-2" data-name="Oval" class="cls-3" cx="693.5" cy="76.9" r="26.5"/><circle id="Oval-2-3" data-name="Oval-2" class="cls-2" cx="693.5" cy="76.9" r="4.5"/><path id="Line-4-2" data-name="Line-4" class="cls-4" d="M694.5,76.5v-50" transform="translate(0 -0.6)"/><path id="Line-5-2" data-name="Line-5" class="cls-4" d="M447,26.5H692.5" transform="translate(0 -0.6)"/><g id="Extremely-low-ascend" class="cls-1"><text class="cls-5" transform="translate(447.02 15.4)">Ext<tspan class="cls-7" x="22.16" y="0">r</tspan><tspan x="27.47" y="0">emely low ascender/descender</tspan></text></g><path id="Line-5-3" data-name="Line-5" class="cls-4" d="M432.5,315.5H595.91" transform="translate(0 -0.6)"/><circle id="Oval-3" data-name="Oval" class="cls-3" cx="432.5" cy="239.9" r="26.5"/><circle id="Oval-2-4" data-name="Oval-2" class="cls-2" cx="432.5" cy="239.9" r="4.5"/><path id="Line-4-3" data-name="Line-4" class="cls-4" d="M432.5,315.5v-74" transform="translate(0 -0.6)"/><g id="Nicely-curved-stroke" class="cls-1"><text class="cls-5" transform="translate(444 304.4)">Nicely cu<tspan class="cls-8" x="64.77" y="0">r</tspan><tspan class="cls-9" x="70.4" y="0">v</tspan><tspan x="77.99" y="0">ed st</tspan><tspan class="cls-6" x="112.98" y="0">r</tspan><tspan x="118.28" y="0">o</tspan><tspan class="cls-6" x="127.32" y="0">k</tspan><tspan x="135.25" y="0">es</tspan></text></g><circle id="Oval-4" data-name="Oval" class="cls-3" cx="49.5" cy="159.9" r="26.5"/><circle id="Oval-2-5" data-name="Oval-2" class="cls-2" cx="49.5" cy="159.9" r="4.5"/><path id="Line-4-4" data-name="Line-4" class="cls-4" d="M.5,311.5v-151" transform="translate(0 -0.6)"/><path id="Line-6" class="cls-4" d="M1.5,160.5h46" transform="translate(0 -0.6)"/><path id="Line-5-4" data-name="Line-5" class="cls-4" d="M.5,311.5H251.19" transform="translate(0 -0.6)"/><text class="cls-5" transform="translate(12 300.4)">Bold, Condensed, High-cont<tspan class="cls-10" x="195.48" y="0">r</tspan><tspan x="200.6" y="0">asted</tspan></text></svg>